<?xml version="1.0" standalone="no"?>
<!DOCTYPE svg PUBLIC "-//W3C//DTD SVG 20010904//EN"
 "http://www.w3.org/TR/2001/REC-SVG-20010904/DTD/svg10.dtd">
<svg version="1.0" xmlns="http://www.w3.org/2000/svg"
 width="1150.000000pt" height="541.000000pt" viewBox="0 0 1150.000000 541.000000"
 preserveAspectRatio="xMidYMid meet">

<g transform="translate(0.000000,541.000000) scale(0.100000,-0.100000)"
fill="#000000" stroke="none">
<path d="M0 2705 l0 -2705 5750 0 5750 0 0 2705 0 2705 -5750 0 -5750 0 0
-2705z m3276 2549 c13 -3 21 -10 19 -15 -3 -4 -11 -6 -18 -3 -8 3 -26 -2 -41
-10 -16 -8 -34 -12 -42 -9 -7 3 -28 0 -46 -5 -18 -6 -53 -13 -78 -16 -25 -2
-54 -7 -65 -10 -11 -3 -3 2 17 12 21 9 38 23 38 30 0 9 7 11 23 6 27 -9 41 -9
88 4 23 6 43 6 54 0 15 -9 15 -8 5 13 -11 19 -10 21 5 15 9 -3 28 -9 41 -12z
m-156 2 c0 -2 -7 -7 -16 -10 -8 -3 -12 -2 -9 4 6 10 25 14 25 6z m-105 -36
c-3 -5 -11 -10 -16 -10 -6 0 -7 5 -4 10 3 6 11 10 16 10 6 0 7 -4 4 -10z m-38
-16 c-3 -3 -12 -4 -19 -1 -8 3 -5 6 6 6 11 1 17 -2 13 -5z m290 -18 c2 -2 -29
-6 -69 -10 -71 -6 -119 -25 -67 -26 65 -2 123 -11 129 -21 4 -6 10 -10 14 -10
3 1 14 1 24 1 16 -1 16 -1 -1 -11 -14 -8 -24 -6 -44 6 -14 9 -22 12 -19 6 4
-6 2 -11 -3 -11 -6 0 -11 4 -11 8 0 5 -18 8 -40 7 -22 -1 -40 1 -40 4 0 3 -14
12 -30 19 -31 14 -32 31 -2 30 9 0 37 4 62 9 39 8 89 8 97 -1z m-291 -24 c-3
-3 -21 -7 -38 -8 l-33 -3 30 13 c28 12 54 11 41 -2z m81 -4 c-8 -4 -23 -5 -33
-1 -16 6 -16 7 2 13 26 10 52 0 31 -12z m66 -35 c-7 -2 -19 -2 -25 0 -7 3 -2
5 12 5 14 0 19 -2 13 -5z m6132 -18 c175 -11 262 -37 460 -137 153 -78 264
-169 366 -303 89 -115 137 -247 185 -500 9 -49 25 -105 35 -123 22 -38 25 -66
5 -39 -16 21 -45 22 -52 2 -3 -8 -16 -14 -29 -13 -13 1 -22 5 -20 8 2 3 -5 6
-15 6 -11 0 -22 -6 -24 -13 -3 -8 1 -10 12 -7 14 5 15 4 2 -5 -11 -7 -19 -6
-29 4 -12 12 -18 11 -45 -8 -17 -12 -37 -23 -45 -25 -20 -4 -54 -51 -67 -92
-13 -42 0 -100 22 -100 8 0 12 -4 9 -10 -3 -5 1 -23 10 -39 11 -22 26 -33 58
-41 23 -6 50 -13 59 -16 20 -6 33 27 24 62 -5 19 -11 24 -26 19 -16 -5 -20 -2
-20 14 0 24 9 25 62 11 48 -14 70 -43 57 -77 -12 -33 -12 -33 16 -33 25 0 36
-19 13 -21 -10 0 -10 -2 -1 -5 19 -8 31 -59 49 -209 30 -250 22 -378 -25 -393
-8 -3 -11 0 -7 7 10 15 -19 14 -47 -1 -22 -12 -22 -12 5 -18 21 -4 25 -8 18
-19 -7 -12 -11 -13 -25 -1 -26 22 -39 -2 -15 -30 11 -13 20 -19 20 -14 0 6 -6
16 -12 23 -11 11 -10 12 7 3 16 -8 24 -5 43 16 17 19 23 21 18 9 -3 -10 -13
-48 -21 -85 -20 -87 -45 -153 -56 -146 -5 3 -6 -1 -3 -9 3 -8 1 -18 -5 -22 -6
-3 -11 -15 -11 -26 0 -10 -4 -19 -9 -19 -5 0 -12 -7 -15 -16 -3 -8 -2 -12 3
-9 6 3 -1 -21 -14 -53 -13 -32 -31 -90 -40 -128 -32 -139 -46 -176 -60 -164
-10 8 -19 8 -34 -2 -12 -7 -21 -16 -21 -20 0 -5 -11 -8 -24 -8 -13 0 -29 -7
-36 -15 -7 -8 -16 -13 -20 -10 -4 3 -10 -2 -14 -10 -8 -22 -56 -20 -57 3 0 9
-2 25 -4 35 -2 9 3 17 10 17 7 0 18 7 25 15 10 12 9 15 -4 15 -16 0 -26 -6
-61 -38 -19 -17 -119 -7 -155 16 -34 21 -80 26 -80 7 0 -8 -3 -14 -7 -14 -22
4 -25 -3 -7 -16 10 -9 -7 -3 -38 12 -32 15 -58 32 -58 36 0 5 4 6 9 2 5 -3 12
-1 15 4 6 9 -16 21 -40 21 -11 0 -14 -7 -9 -22 5 -20 4 -21 -5 -5 -6 9 -8 21
-5 27 3 5 -4 14 -16 21 -19 10 -21 9 -16 -5 10 -25 -7 -19 -18 7 -6 12 -20 23
-33 25 -14 2 -22 9 -20 19 2 11 -8 19 -29 25 -18 5 -33 13 -33 17 0 5 -15 25
-34 44 -24 25 -34 43 -32 61 3 22 -1 26 -23 26 -33 0 -66 19 -36 21 16 0 15 3
-8 13 -37 16 -65 55 -47 66 7 5 19 6 26 3 6 -2 15 1 19 7 5 8 -4 11 -30 9 -26
-3 -41 1 -50 14 -7 9 -17 17 -24 17 -6 0 -11 7 -11 15 0 8 -5 15 -11 15 -6 0
-9 -7 -5 -15 4 -11 -1 -15 -18 -15 -25 0 -77 51 -58 58 7 2 12 8 12 13 0 5 -8
4 -19 -2 -10 -7 -18 -17 -17 -23 0 -6 -3 -13 -9 -16 -5 -3 -11 12 -13 33 -2
26 1 37 10 37 9 0 10 2 2 8 -7 4 -14 18 -17 32 -3 19 -5 15 -6 -12 -1 -35 -3
-38 -32 -38 -17 0 -40 5 -51 11 -15 8 -19 8 -14 0 5 -7 -4 -11 -26 -11 -25 0
-29 -3 -18 -10 12 -7 12 -12 2 -22 -6 -6 -12 -29 -12 -50 0 -37 -17 -88 -30
-88 -18 0 -71 34 -81 51 -5 11 -14 17 -20 14 -5 -4 -9 -1 -9 4 0 6 -4 11 -9
11 -6 0 -9 -9 -8 -20 1 -10 3 -17 5 -15 2 2 9 -1 16 -7 14 -13 12 -96 -3 -111
-6 -6 -11 -18 -11 -26 0 -11 5 -9 20 7 24 26 32 28 24 7 -4 -8 -1 -15 6 -15 6
0 9 -8 5 -19 -3 -11 1 -24 12 -32 11 -9 14 -10 9 -1 -4 7 -2 12 7 12 8 0 17
-7 21 -15 9 -24 25 -17 19 8 -3 16 -2 18 5 8 5 -7 14 -11 18 -8 5 3 10 -6 10
-19 2 -19 -3 -24 -25 -25 -28 0 -75 -17 -52 -18 8 -1 11 -7 7 -17 -3 -8 -2
-12 4 -9 6 3 10 -5 10 -19 0 -26 23 -36 35 -16 10 16 28 12 21 -5 -3 -9 0 -15
8 -15 8 0 21 -3 29 -6 9 -3 16 3 20 16 6 23 28 23 35 0 3 -9 -1 -11 -12 -7
-11 4 -16 1 -16 -12 0 -26 -11 -33 -28 -18 -13 9 -14 9 -8 0 5 -9 0 -13 -13
-13 -12 0 -21 4 -21 9 0 5 -10 12 -22 16 -43 12 -69 28 -57 36 18 11 0 31 -22
24 -12 -4 -21 -1 -25 9 -9 24 -23 19 -17 -6 4 -22 4 -22 -10 1 -15 25 -12 55
4 45 5 -3 9 9 9 25 0 18 5 31 13 31 6 0 1 9 -13 19 -13 11 -28 17 -33 14 -5
-3 -8 3 -7 13 4 38 0 65 -10 59 -16 -10 -12 12 6 29 8 9 11 16 6 16 -5 0 -15
-7 -22 -15 -18 -22 -30 -8 -23 27 4 21 3 29 -5 24 -6 -3 -13 -2 -17 4 -3 5 -1
10 5 10 8 0 10 9 6 26 -4 15 -2 32 5 40 19 23 3 41 -35 42 -22 1 -34 -3 -31
-8 3 -6 12 -10 20 -10 13 0 29 -29 20 -38 -3 -3 -5 0 -5 6 0 7 -7 12 -16 12
-10 0 -14 -6 -11 -15 4 -8 2 -17 -3 -20 -6 -4 -10 5 -10 19 0 14 -4 26 -9 26
-5 0 -7 10 -4 23 4 21 4 21 -10 4 -17 -20 -31 -9 -17 13 6 10 28 15 66 16 48
2 61 -2 75 -20 l17 -21 1 25 c4 79 4 98 -3 130 -7 30 -4 27 18 -18 22 -46 29
-52 47 -47 28 9 78 13 77 6 0 -4 0 -19 1 -36 1 -26 3 -27 12 -12 5 9 7 22 4
27 -3 6 1 10 9 10 10 0 13 6 10 15 -4 8 -11 12 -17 8 -7 -4 -8 0 -4 11 4 10 7
23 8 29 0 7 5 1 10 -13 10 -25 11 -25 25 -5 13 18 13 20 0 23 -16 3 -18 40 -3
59 5 7 6 17 2 23 -4 6 -1 18 7 27 11 14 10 15 -10 9 -20 -7 -21 -5 -12 18 5
14 7 32 4 40 -3 7 3 17 13 20 10 4 19 2 21 -3 2 -6 10 -11 18 -11 9 0 13 4 10
9 -3 5 5 11 19 13 17 4 25 1 25 -8 0 -8 5 -14 10 -14 6 0 10 7 10 15 0 8 5 15
10 15 6 0 10 -7 10 -16 0 -11 6 -14 21 -9 14 5 19 3 15 -3 -11 -18 13 -24 30
-7 9 9 22 14 29 11 9 -3 11 2 8 15 -4 15 -8 17 -19 8 -11 -9 -14 -8 -14 4 0 9
5 19 11 23 6 3 9 19 5 35 -5 29 8 41 17 17 3 -7 5 -1 4 15 -1 15 -5 27 -9 27
-4 0 -7 3 -7 8 1 4 0 10 -1 15 -5 16 -8 28 -9 46 -1 13 -7 18 -19 14 -12 -3
-19 1 -19 11 0 10 9 16 24 16 13 0 23 5 23 10 0 6 -7 10 -16 10 -11 0 -15 6
-11 20 3 10 1 20 -4 22 -5 2 -10 17 -11 33 -1 17 -9 35 -18 42 -13 11 -12 12
9 13 23 0 23 1 8 18 -20 22 -21 32 -4 32 8 0 13 10 13 22 -1 13 4 23 9 23 19
1 35 16 29 27 -5 7 -1 9 9 5 10 -3 17 -2 17 4 0 16 -68 79 -84 79 -8 0 -17 14
-21 31 -5 23 -10 28 -18 20 -15 -15 -27 -14 -27 3 0 7 -7 19 -16 27 -8 7 -13
21 -11 31 3 10 1 18 -5 18 -6 0 0 9 13 20 l24 19 -22 1 c-13 0 -23 4 -23 9 0
5 -7 12 -16 15 -8 3 -12 2 -9 -4 9 -14 -8 -13 -23 2 -9 9 -17 0 -34 -38 -15
-33 -23 -43 -26 -31 -2 10 2 24 8 32 13 15 5 55 -11 55 -5 0 -9 16 -9 36 0 28
-3 35 -17 32 -11 -2 -17 -11 -15 -22 2 -10 -1 -15 -6 -12 -6 3 -12 1 -14 -5
-2 -7 -12 -7 -31 0 -22 9 -27 15 -22 31 4 14 2 20 -8 20 -19 0 -17 -32 2 -47
14 -11 14 -12 -4 -13 l-20 -1 20 -8 c11 -5 23 -7 28 -4 4 2 7 -5 7 -16 0 -12
6 -21 13 -22 10 0 10 -2 0 -6 -7 -2 -13 -9 -13 -15 0 -5 -7 -16 -15 -24 -14
-15 -20 -11 -16 10 1 5 -4 13 -11 17 -10 6 -9 11 6 22 17 13 18 14 2 20 -10 4
-22 5 -27 2 -5 -4 -6 0 -3 8 3 8 -2 17 -11 21 -9 3 -13 2 -10 -4 3 -6 -3 -10
-14 -10 -12 0 -21 5 -21 11 0 8 -5 8 -15 -1 -9 -8 -20 -9 -27 -3 -23 16 -68
16 -68 0 0 -9 6 -17 13 -20 9 -3 7 -10 -5 -23 -10 -10 -18 -13 -18 -7 0 17
-43 12 -58 -7 -8 -8 -11 -9 -7 -2 9 18 -13 15 -23 -4 -6 -11 -11 -13 -16 -5
-4 6 -2 11 4 11 6 0 10 8 8 17 -2 13 6 17 36 19 53 4 61 15 35 48 -25 31 -23
35 11 25 21 -6 22 -7 5 -9 -13 -1 -8 -5 15 -12 24 -7 36 -6 38 1 5 15 23 14
19 0 -1 -6 4 -14 11 -16 8 -3 10 1 6 11 -3 9 -1 16 4 16 6 0 26 14 44 31 22
20 26 27 11 20 -16 -8 -22 -8 -26 2 -2 7 -12 -1 -23 -19 -10 -17 -24 -29 -31
-27 -6 2 -14 -1 -18 -6 -11 -18 -20 -12 -20 13 0 19 5 23 23 21 27 -3 29 3 2
13 -15 5 -17 11 -9 22 8 11 12 12 16 3 6 -16 33 -17 33 -2 0 5 -4 8 -9 4 -6
-3 -15 3 -20 14 -14 26 -14 31 4 31 8 0 12 6 9 15 -5 11 -9 12 -25 2 -11 -7
-17 -17 -15 -24 6 -14 -33 -14 -51 0 -18 14 -27 -17 -13 -43 16 -29 0 -42 -22
-19 -10 11 -13 19 -8 19 6 0 10 7 10 16 0 10 -6 14 -15 10 -8 -3 -15 -1 -15 3
0 5 6 11 13 14 9 3 7 9 -5 24 -19 21 -25 73 -8 73 6 0 10 -5 10 -12 0 -6 8 -3
20 7 11 10 17 22 14 26 -3 5 -1 9 4 9 5 0 9 -14 9 -30 0 -19 -3 -26 -8 -18
-12 18 -22 3 -14 -21 4 -12 11 -18 17 -15 8 5 9 1 5 -10 -4 -10 -3 -15 3 -11
6 3 10 -2 11 -12 0 -12 4 -9 11 10 9 24 18 31 39 29 3 -1 4 10 1 23 -2 14 -9
25 -14 25 -5 0 -6 -4 -3 -10 3 -5 1 -10 -5 -10 -6 0 -8 -4 -5 -10 3 -5 1 -10
-4 -10 -14 0 -14 3 6 45 18 37 32 46 29 19 0 -9 4 -19 11 -21 7 -3 9 3 6 16
-3 14 -1 21 8 21 10 0 14 15 15 47 1 30 7 49 17 54 16 9 12 49 -4 49 -5 0 -9
5 -9 11 0 5 4 8 9 4 5 -3 12 -1 16 4 3 6 13 7 21 4 14 -5 14 -3 0 25 -19 36
-20 46 -6 37 7 -4 9 2 4 19 -5 19 -2 26 9 26 22 0 26 20 10 50 -15 29 -19 64
-4 42 6 -11 10 -10 15 3 5 15 0 17 -33 13 -28 -2 -37 0 -34 9 3 7 9 10 14 7 5
-3 9 2 9 10 0 8 8 17 19 21 11 3 19 15 19 30 0 27 -8 31 -25 14 -6 -6 -16 -8
-22 -5 -14 9 -14 26 0 26 5 0 7 -4 4 -10 -3 -5 -1 -10 4 -10 17 0 13 21 -6 37
-10 7 -13 13 -8 12 31 -4 38 2 19 15 -10 8 -15 18 -11 22 4 5 12 2 17 -6 6 -8
10 -12 10 -8 0 3 3 13 6 22 4 12 0 16 -15 16 -12 0 -21 5 -21 11 0 5 4 8 9 5
5 -4 11 -1 13 6 3 7 13 2 26 -12 12 -13 24 -21 28 -18 3 4 -3 15 -14 26 -19
19 -19 19 8 36 16 9 40 16 53 16 15 0 32 9 41 21 9 13 19 18 27 14 7 -5 10 -4
5 3 -4 7 8 15 33 22 22 6 43 15 46 20 4 6 11 8 16 4 5 -3 15 -1 22 4 14 11
128 39 207 50 56 8 83 8 245 -3z m-5934 -27 c4 -6 31 -13 60 -18 l54 -8 -45
-1 -45 -2 50 -24 c28 -13 43 -24 35 -24 -9 -1 -5 -8 13 -19 27 -17 35 -32 17
-32 -5 0 -10 4 -10 9 0 13 -25 20 -49 14 -29 -7 -26 -23 3 -23 14 0 36 -4 51
-10 15 -6 24 -6 20 -1 -11 18 15 22 32 5 11 -11 18 -13 21 -5 2 6 8 9 13 5 5
-3 9 0 9 5 0 6 5 11 10 11 5 0 9 -5 8 -12 -2 -7 2 -12 7 -13 14 0 106 -59 135
-87 35 -32 103 -117 125 -155 11 -18 22 -33 25 -33 4 0 7 -12 8 -27 5 -81 13
-100 43 -100 11 0 16 10 17 31 0 19 -2 25 -7 17 -6 -10 -10 -9 -14 4 -4 9 -3
14 3 10 6 -3 13 1 16 9 3 9 9 14 13 11 8 -5 5 -71 -4 -85 -3 -6 -1 -10 4 -10
6 0 11 -4 11 -10 0 -5 -6 -7 -14 -4 -12 5 -13 0 -6 -28 5 -18 9 -42 8 -53 0
-11 3 -29 7 -40 5 -16 5 -17 -4 -5 -6 8 -11 11 -11 6 0 -6 -6 -1 -14 9 -12 16
-14 -6 -13 -165 0 -102 2 -178 5 -170 9 27 34 49 64 55 23 6 27 9 17 21 -8 10
-8 14 -1 14 6 0 9 8 6 18 -5 14 -3 14 10 -2 9 -11 17 -38 18 -60 4 -109 -1
-128 -71 -262 -38 -73 -85 -157 -105 -187 -20 -30 -46 -88 -57 -128 -32 -116
-112 -261 -176 -321 -20 -19 -21 -27 -16 -126 2 -59 8 -113 13 -122 20 -37 58
-161 69 -225 10 -59 24 -128 57 -282 2 -13 11 -23 18 -23 16 0 29 -51 16 -64
-13 -13 1 -119 18 -138 8 -10 12 -18 7 -18 -4 0 -3 -6 3 -13 6 -7 13 -41 17
-77 3 -36 10 -87 15 -115 5 -27 14 -95 21 -150 6 -55 13 -111 15 -125 2 -14 4
-67 5 -117 1 -61 5 -93 13 -93 6 0 4 -5 -4 -10 -8 -5 -10 -10 -4 -10 15 0 27
-195 15 -235 -7 -22 -10 -25 -11 -10 -2 17 -3 16 -10 -5 -7 -22 -8 -22 -10 -5
-2 14 -4 12 -10 -10 l-7 -30 -10 25 c-9 22 -11 19 -17 -33 -4 -31 -5 -61 -1
-67 3 -5 2 -16 -2 -24 -17 -31 -37 5 -69 130 -18 71 -58 226 -89 344 -31 118
-79 304 -106 414 -27 109 -63 239 -78 290 -58 184 -66 258 -35 319 18 35 32
34 79 -3 42 -33 57 -38 49 -15 -4 8 -2 15 3 15 4 0 18 -30 30 -67 20 -65 21
-66 22 -29 1 30 -13 64 -60 150 -69 125 -82 142 -122 162 -34 18 -91 9 -117
-18 -10 -11 -37 -22 -59 -25 -38 -5 -45 -11 -86 -74 -40 -59 -46 -76 -51 -136
-3 -37 -7 -83 -9 -100 -2 -20 2 -39 10 -47 9 -8 15 -38 16 -75 1 -37 6 -58 12
-54 6 3 7 1 3 -5 -6 -10 15 -54 34 -72 20 -20 44 -329 28 -356 -4 -5 7 -57 23
-114 32 -116 79 -330 79 -358 0 -18 -31 -24 -46 -9 -4 4 -20 7 -36 7 -15 0
-28 6 -29 13 0 9 -2 9 -5 0 -3 -7 -12 -9 -20 -6 -20 7 -162 -45 -186 -69 -19
-19 -48 -24 -48 -8 0 5 11 12 24 16 16 4 23 11 19 20 -4 10 -9 11 -18 4 -6 -5
-15 -7 -19 -3 -3 4 -13 -3 -22 -15 -16 -23 -37 -21 -28 2 6 17 -18 27 -37 15
-8 -5 -23 -8 -34 -8 l-20 0 20 9 c11 5 14 9 7 9 -7 1 -21 -3 -30 -8 -25 -13
-80 -24 -63 -12 11 7 11 13 -3 32 -13 19 -16 20 -16 6 0 -24 -25 -21 -50 5
-17 19 -18 23 -5 38 13 14 11 16 -20 12 -19 -2 -33 -8 -30 -12 3 -4 -4 -10
-14 -13 -15 -3 -19 0 -18 14 1 11 9 19 19 19 10 0 18 5 18 10 0 10 -49 15
-103 11 -23 -2 -28 1 -25 16 2 12 19 21 53 29 28 6 58 15 67 19 13 5 17 2 15
-17 0 -12 -6 -26 -12 -30 -5 -4 6 -8 25 -8 26 0 31 3 20 10 -24 16 -2 11 32
-6 31 -16 71 -21 243 -28 117 -5 287 -31 325 -51 17 -9 30 -12 30 -8 0 5 -16
58 -35 118 -104 320 -185 607 -185 650 0 12 -4 25 -9 31 -5 5 -39 81 -76 169
-63 148 -124 290 -162 374 -16 36 -8 69 16 63 23 -5 8 26 -55 113 -35 50 -79
119 -97 155 -30 61 -32 71 -32 177 0 61 -3 115 -7 119 -5 4 -8 -3 -8 -15 0
-16 -4 -21 -14 -18 -10 4 -13 1 -9 -9 3 -8 -2 -22 -10 -32 -8 -9 -18 -29 -22
-44 -4 -14 -15 -35 -26 -47 -10 -11 -19 -25 -19 -32 0 -6 -6 -9 -14 -6 -8 3
-20 -2 -28 -11 -12 -15 -11 -16 4 -4 15 12 16 11 5 -12 l-12 -26 -9 31 c-8 26
-6 34 15 52 13 12 25 27 26 32 1 6 14 40 27 76 25 68 33 159 22 259 -3 25 -3
38 0 28 4 -14 8 -13 31 8 14 13 29 21 34 18 5 -3 9 7 9 21 0 15 4 24 10 20 6
-3 7 1 4 10 -4 9 0 23 8 33 23 26 30 52 14 52 -8 0 -17 6 -19 13 -4 7 -6 6 -6
-5 -1 -18 -27 -48 -42 -48 -5 0 -9 7 -9 16 0 8 3 13 8 10 4 -2 7 13 7 35 0 21
-3 39 -7 39 -5 0 -8 -16 -8 -35 0 -19 -4 -35 -10 -35 -5 0 -9 10 -7 23 1 13
-3 21 -10 20 -7 -2 -13 6 -13 17 0 12 -7 32 -16 45 -18 27 -15 81 4 78 7 -2
12 8 12 27 0 20 5 30 15 30 9 0 15 9 15 23 0 13 3 27 7 31 4 3 8 14 9 22 1 9
6 23 10 32 4 9 6 29 5 45 -2 17 2 27 11 27 10 0 10 2 -1 9 -11 7 -9 10 8 16
18 5 20 9 10 21 -6 8 -7 14 -2 14 5 0 7 14 5 32 -4 26 -2 30 12 25 21 -8 21
11 0 34 -15 16 -14 17 8 12 l23 -5 -24 20 c-17 14 -20 21 -11 27 6 4 10 18 7
31 -3 16 0 24 9 24 8 0 14 7 14 15 0 8 -6 15 -14 15 -9 0 -13 11 -12 35 0 19
5 35 10 35 4 0 5 11 2 25 -6 25 8 36 17 13 4 -10 7 -10 18 0 11 10 11 14 1 21
-9 5 -11 22 -7 57 4 35 3 45 -4 34 -9 -12 -11 -11 -11 7 0 12 7 28 15 37 8 8
15 19 15 25 0 11 60 47 73 43 4 -1 7 4 7 10 0 9 4 8 10 -2 9 -13 10 -13 10 0
0 11 12 16 43 18 72 5 85 7 81 13 -5 8 60 19 117 19 60 0 110 10 104 21 -3 4
7 6 22 5 16 -2 33 1 40 6 7 5 18 8 25 5 15 -5 48 10 48 22 0 5 -17 16 -37 25
-21 9 -27 14 -13 11 57 -14 73 -14 37 0 -31 12 -78 19 -159 24 -5 1 -8 6 -8
12 0 6 12 8 33 5 l32 -6 -27 13 c-21 10 -25 16 -16 25 9 9 1 16 -33 31 l-44
19 41 -5 c28 -4 44 -1 49 7 6 10 2 12 -13 8 -12 -4 -22 -1 -22 4 0 6 -12 8
-27 5 -16 -2 -37 -1 -48 3 -17 7 -16 9 10 10 57 2 180 12 183 15 6 5 57 -9 63
-17z m493 -1 c4 4 4 0 1 -9 -5 -13 -12 -15 -30 -8 -13 5 -26 6 -29 3 -3 -4 -6
-1 -6 5 0 14 32 21 46 10 6 -4 14 -5 18 -1z m-780 -18 c3 -3 -4 -5 -14 -6 -11
-1 -20 2 -20 7 0 8 25 8 34 -1z m-215 -62 c-2 -1 -15 -11 -29 -22 l-25 -20 19
23 c11 12 24 22 29 22 6 0 8 -1 6 -3z m1009 -6 c11 -6 10 -11 -3 -24 -9 -9
-13 -21 -10 -27 3 -5 -3 -10 -14 -10 -12 0 -21 5 -21 11 0 5 5 7 10 4 6 -3 10
-2 10 3 0 6 -16 13 -35 16 -19 4 -35 11 -35 17 0 6 4 8 9 5 5 -3 26 -8 47 -10
22 -2 33 -2 27 1 -14 5 -18 23 -5 23 4 0 13 -4 20 -9z m-1312 -21 c0 -11 -6
-20 -12 -20 -6 0 -14 9 -17 20 -4 14 0 20 12 20 10 0 17 -8 17 -20z m531 -46
c-16 -14 -31 -23 -35 -19 -4 4 -2 10 4 12 6 2 20 10 30 18 31 23 31 17 1 -11z
m2945 -19 c-2 -10 1 -14 8 -10 6 4 17 1 25 -5 12 -10 12 -15 -2 -37 -15 -22
-15 -25 0 -41 12 -11 17 -12 17 -4 0 7 4 11 9 8 5 -3 8 13 8 35 l-2 42 62 2
63 3 -6 -38 c-4 -26 -2 -39 7 -42 10 -4 13 -23 11 -72 -3 -57 -6 -66 -23 -66
-10 0 -19 5 -19 10 0 11 -65 8 -77 -3 -20 -21 -33 -4 -33 41 0 41 -3 48 -20
48 -17 0 -20 -7 -20 -48 0 -36 -4 -48 -15 -48 -11 0 -15 13 -15 54 0 50 -2 54
-21 49 -19 -5 -18 -1 11 38 l32 44 -26 3 c-27 3 -37 22 -11 22 11 0 12 5 5 26
-14 36 -13 38 13 21 12 -8 21 -23 19 -32z m-2985 22 c-3 -7 -9 -11 -14 -10 -5
1 -26 -2 -46 -7 -44 -10 -48 -4 -8 13 40 17 73 19 68 4z m3177 7 c38 -15 10
-24 -66 -22 -66 1 -72 2 -28 5 30 2 59 8 65 14 11 11 9 11 29 3z m185 -3 c9
-6 10 -11 2 -15 -6 -4 -11 -11 -11 -17 0 -12 53 -12 66 1 12 12 44 3 44 -11 0
-5 -30 -9 -68 -9 -57 0 -69 -3 -80 -21 -17 -26 -10 -35 11 -14 20 19 43 19 51
0 4 -12 10 -13 25 -5 25 13 54 2 47 -17 -3 -8 -6 -37 -6 -64 0 -42 -3 -51 -22
-58 -18 -7 -25 -5 -33 12 -7 15 -6 22 3 25 18 6 16 82 -3 82 -12 0 -15 -14
-15 -70 0 -63 -2 -70 -20 -70 -18 0 -20 7 -20 70 0 63 -2 70 -20 70 -16 0 -19
-8 -22 -62 -2 -48 -7 -63 -18 -63 -11 0 -16 14 -18 57 l-3 58 -31 -16 c-31
-16 -31 -16 10 32 l42 49 -33 6 c-35 7 -27 12 15 9 21 -1 31 5 39 24 12 27 41
34 68 17z m175 -14 c-1 -9 4 -17 12 -17 8 0 14 9 14 20 0 12 7 20 16 20 9 0
18 -9 21 -20 5 -20 23 -28 23 -11 0 5 9 7 20 4 11 -3 32 3 47 12 25 17 27 17
40 -1 12 -16 11 -19 -4 -26 -10 -3 -28 -7 -39 -7 -13 -1 -24 -9 -27 -22 -5
-20 -3 -21 33 -15 22 3 41 2 45 -4 3 -5 1 -10 -4 -10 -7 0 -11 -30 -11 -80 0
-73 -2 -80 -20 -80 -18 0 -20 7 -20 76 0 56 -3 75 -12 72 -7 -3 -16 -26 -20
-52 -12 -85 -77 -122 -90 -51 -6 30 5 32 31 6 19 -19 19 -19 23 10 l5 29 -71
1 c-39 0 -65 3 -58 6 7 3 12 24 12 53 0 29 -5 51 -12 54 -10 5 -10 7 0 12 6 3
12 15 12 26 0 13 5 18 18 16 9 -2 16 -11 16 -21z m-4055 -8 c-7 -4 -10 -11 -6
-15 4 -4 3 -12 -2 -18 -17 -21 -41 -112 -47 -179 -4 -43 -10 -64 -15 -55 -9
14 -9 14 -14 -56 -1 -26 -7 -51 -13 -55 -6 -3 -13 -24 -17 -46 -5 -30 -4 -36
4 -25 9 13 11 12 11 -4 0 -13 -5 -16 -16 -12 -12 5 -15 2 -9 -11 11 -31 10
-35 -8 -38 -15 -3 -18 1 -12 18 3 12 11 60 17 107 6 50 18 93 27 104 12 13 16
39 16 96 0 62 4 82 19 99 10 11 16 27 12 37 -4 11 0 18 14 21 11 3 20 13 20
22 0 22 10 32 22 24 6 -3 5 -9 -3 -14z m1356 2 c-7 -12 -54 -10 -62 2 -4 7 5
8 26 4 23 -5 30 -3 25 5 -4 7 -3 8 5 4 6 -4 9 -11 6 -15z m-601 -5 c16 5 18 3
9 -6 -12 -13 -68 -5 -78 11 -4 5 6 4 21 -1 15 -6 36 -8 48 -4z m-344 -10 c0
-3 -15 -15 -32 -27 l-33 -23 24 27 c22 24 41 35 41 23z m200 -6 c0 -5 -7 -7
-15 -4 -8 4 -15 8 -15 10 0 2 7 4 15 4 8 0 15 -4 15 -10z m5380 6 c0 -2 -8
-10 -17 -17 -16 -13 -17 -12 -4 4 13 16 21 21 21 13z m-4630 -16 c0 -5 -5 -10
-11 -10 -5 0 -7 5 -4 10 3 6 8 10 11 10 2 0 4 -4 4 -10z m-835 -20 c-3 -5 -11
-10 -16 -10 -6 0 -7 5 -4 10 3 6 11 10 16 10 6 0 7 -4 4 -10z m803 -6 c12 -8
20 -19 17 -24 -3 -5 0 -12 6 -16 8 -4 9 -3 5 4 -11 18 2 14 22 -6 17 -17 17
-18 -14 -18 -21 0 -35 6 -38 16 -3 8 -13 25 -22 38 -19 26 -8 29 24 6z m4518
-23 c-4 -5 0 -12 6 -15 7 -3 3 -3 -9 -1 -22 6 -37 -8 -38 -34 0 -22 -32 -38
-46 -24 -12 12 -10 15 60 70 19 15 35 17 27 4z m-2446 -110 l0 -79 58 5 c72 5
114 -18 142 -80 53 -116 -4 -256 -117 -288 -42 -11 -161 -8 -183 6 -6 4 -10
93 -10 216 0 211 -5 249 -36 249 -36 0 -3 26 47 36 103 22 99 25 99 -65z
m-2011 54 c16 -8 31 -21 35 -30 4 -12 2 -13 -12 -7 -9 5 -22 7 -29 5 -6 -2
-14 1 -18 6 -3 6 -1 11 6 11 7 0 4 7 -7 15 -25 19 -11 19 25 0z m1281 -60 c0
-90 -16 -100 -50 -29 -25 51 -49 64 -119 64 l-48 0 -7 -90 c-4 -50 -4 -95 -1
-100 9 -15 62 -12 79 5 8 8 18 24 21 35 3 11 13 20 21 20 11 0 14 -18 14 -85
0 -66 -3 -85 -14 -85 -7 0 -19 13 -26 30 -9 22 -21 31 -47 36 -18 4 -37 4 -40
0 -9 -9 -3 -168 8 -188 5 -10 21 -18 34 -18 16 0 25 -6 25 -15 0 -13 -21 -15
-130 -15 -109 0 -130 2 -130 15 0 8 8 15 19 15 40 0 46 25 49 204 4 193 -4
240 -43 250 -14 4 -25 11 -25 16 0 6 78 10 205 10 l205 0 0 -75z m3336 50 c10
-8 14 -15 8 -15 -5 0 -19 7 -30 15 -10 8 -14 15 -8 15 5 0 19 -7 30 -15z
m-1950 -16 c6 -10 -42 -69 -57 -69 -3 0 2 18 13 40 21 41 32 48 44 29z m1705
-31 c-10 -11 -11 -9 -5 6 5 14 3 17 -7 14 -8 -3 -13 -14 -11 -26 2 -13 -4 -23
-18 -27 -15 -5 -19 -12 -15 -25 3 -10 1 -21 -4 -25 -7 -4 -8 1 -4 11 4 12 3
15 -6 10 -7 -5 -11 -17 -8 -27 3 -10 0 -22 -5 -26 -7 -4 -8 -1 -3 7 6 9 4 11
-4 6 -7 -5 -10 -14 -7 -21 2 -7 -2 -16 -10 -19 -8 -3 -14 -13 -14 -22 0 -9 -7
-22 -16 -29 -9 -6 -17 -27 -19 -46 -2 -19 -4 -36 -5 -39 -2 -3 -4 -9 -5 -15
-1 -5 -7 -28 -13 -51 -7 -23 -13 -53 -14 -68 -2 -19 -7 -25 -18 -21 -12 5 -13
4 -2 -6 13 -14 17 -73 3 -65 -4 3 -6 -6 -3 -21 4 -20 2 -24 -9 -18 -11 7 -11
5 1 -10 10 -12 11 -19 4 -22 -7 -2 -10 -18 -7 -39 3 -20 -1 -41 -7 -49 -10
-12 -10 -18 0 -30 10 -12 10 -15 -1 -15 -12 0 -12 -2 0 -9 9 -6 10 -11 3 -15
-6 -4 -8 -14 -5 -23 4 -10 2 -14 -4 -10 -7 4 -10 0 -8 -10 2 -10 4 -22 4 -26
1 -5 5 -6 9 -3 4 2 8 -7 7 -21 0 -15 -6 -28 -13 -31 -6 -2 -9 -8 -6 -14 4 -6
10 -5 16 3 7 11 8 9 6 -6 -1 -11 1 -26 5 -32 5 -8 4 -13 -2 -13 -6 0 -11 -7
-11 -15 0 -8 -6 -15 -14 -15 -9 0 -16 -17 -21 -46 -5 -38 -9 -43 -21 -33 -16
13 -14 21 -18 -116 -2 -73 -1 -76 9 -42 11 41 24 40 26 -2 1 -21 3 -20 9 9 l6
35 8 -40 c5 -22 18 -58 31 -80 12 -22 28 -67 35 -100 12 -59 40 -117 79 -162
11 -13 22 -23 26 -23 10 0 -6 44 -19 52 -6 4 -7 10 -3 14 4 4 1 14 -6 22 -17
21 -16 192 2 264 11 46 12 66 3 97 -12 40 -7 75 9 65 5 -3 9 0 9 5 0 15 31 13
53 -3 19 -15 20 -14 -34 -113 -10 -18 -8 -29 6 -59 14 -29 16 -53 12 -103 -3
-36 -3 -78 0 -94 5 -24 9 -19 45 55 51 109 54 113 67 111 6 -2 11 2 11 7 0 6
5 10 10 10 20 0 9 -38 -16 -55 -14 -9 -23 -19 -20 -22 3 -4 0 -13 -8 -22 -7
-9 -17 -27 -20 -41 l-7 -25 15 25 c9 14 15 21 16 16 0 -5 11 1 25 14 20 18 28
21 37 12 8 -8 8 -12 1 -12 -15 0 -37 -56 -27 -71 4 -7 3 -10 -3 -6 -6 4 -13
-4 -15 -18 -3 -13 -1 -22 3 -19 11 7 11 -7 0 -25 -11 -17 -71 -5 -88 18 -11
14 -12 14 -13 1 0 -26 22 -40 61 -40 29 0 43 -7 62 -30 14 -16 30 -30 36 -30
14 0 14 -17 1 -22 -6 -2 -6 -9 0 -17 7 -12 10 -9 15 12 4 15 13 27 21 27 7 0
17 8 23 18 8 14 12 15 22 5 18 -18 29 -16 29 6 0 11 -8 22 -19 26 -12 4 -20
18 -24 45 -3 22 -12 46 -20 54 -20 20 -15 87 9 122 11 16 26 42 34 57 12 25
15 26 21 10 4 -10 5 -21 2 -25 -2 -5 3 -8 11 -8 11 0 14 -10 13 -39 -1 -22 1
-37 5 -35 4 3 10 -8 14 -23 4 -15 11 -33 15 -39 5 -6 6 -21 3 -35 -3 -13 -9
-48 -14 -77 -5 -29 -12 -57 -15 -62 -4 -6 1 -7 12 -3 16 6 16 5 5 -9 -10 -13
-11 -25 -3 -55 15 -53 13 -62 -7 -35 l-19 24 -22 -76 -23 -76 -37 0 c-56 0
-201 77 -201 107 0 8 -6 13 -12 11 -13 -5 -91 105 -104 144 -3 12 -11 17 -20
14 -10 -4 -16 4 -21 24 -3 17 -10 33 -14 36 -5 3 -9 12 -9 20 0 8 4 12 10 9 6
-3 7 1 4 10 -6 14 -8 13 -20 -4 -14 -20 -10 -51 7 -51 5 0 7 -12 3 -27 -4 -19
-3 -24 4 -15 7 11 11 8 16 -13 7 -28 0 -49 -15 -40 -5 3 -6 -1 -3 -10 6 -14 8
-14 21 2 8 10 12 13 9 6 -8 -15 4 -44 15 -37 5 3 8 -5 6 -18 -1 -18 2 -22 18
-20 15 2 17 1 6 -6 -7 -6 -10 -15 -6 -22 6 -9 9 -9 16 1 7 11 9 10 9 -3 0 -10
4 -18 9 -18 13 0 41 -29 41 -42 0 -6 -8 -2 -17 9 -10 10 -15 14 -11 9 4 -5 4
-16 -1 -25 -4 -9 -7 -23 -6 -31 1 -8 3 -21 3 -27 3 -22 21 -14 28 12 11 44 24
7 28 -80 3 -55 19 -95 30 -76 10 15 -3 53 -15 46 -5 -4 -9 -2 -9 4 0 5 5 11
10 13 6 2 2 31 -10 75 -11 40 -20 83 -20 95 l1 23 12 -23 c13 -22 108 -92 126
-92 5 0 12 -7 15 -16 3 -8 10 -12 16 -9 15 10 24 -23 10 -40 -6 -8 -9 -22 -6
-32 3 -10 10 -58 16 -108 8 -70 19 -105 45 -157 19 -36 36 -78 37 -92 2 -20 7
-25 20 -21 19 7 45 -30 29 -40 -5 -3 -13 4 -16 15 -5 17 -10 19 -20 10 -11 -9
-19 -5 -35 22 l-21 33 7 -30 c4 -16 11 -35 16 -42 5 -7 7 -17 4 -22 -4 -5 -2
-13 4 -16 8 -5 8 -11 0 -20 -7 -8 -7 -21 0 -39 5 -14 8 -26 5 -26 -2 0 2 -15
10 -34 8 -19 12 -43 8 -52 -5 -13 -3 -15 7 -9 9 5 11 4 6 -3 -4 -6 1 -23 10
-36 9 -14 14 -31 11 -38 -3 -8 -10 -2 -17 15 -10 20 -18 26 -32 21 -10 -3 -18
0 -18 6 0 6 5 8 10 5 6 -3 10 -2 10 4 0 15 -18 23 -25 11 -4 -6 -4 -23 0 -38
4 -15 10 -21 12 -14 3 9 13 4 29 -15 23 -27 30 -43 18 -43 -3 0 -14 10 -24 23
l-19 22 6 -24 c5 -19 3 -22 -8 -15 -8 4 -21 9 -29 11 -20 2 -109 102 -116 130
-12 46 -49 21 -89 -57 -15 -30 -33 -58 -39 -62 -6 -4 -8 -10 -4 -13 3 -3 -7
-33 -23 -66 -16 -32 -29 -64 -29 -69 0 -6 -3 -10 -7 -10 -5 0 -17 -27 -27 -61
-10 -33 -24 -66 -30 -72 -6 -7 -13 -21 -14 -32 -2 -11 -8 -21 -13 -23 -5 -2
-9 -12 -9 -22 0 -21 -24 -43 -34 -32 -4 4 -6 3 -4 -3 1 -5 -5 -21 -15 -35 -15
-21 -19 -23 -27 -10 -8 13 -10 12 -10 -2 0 -10 -2 -18 -4 -18 -2 0 -13 -3 -23
-7 -16 -6 -16 -5 -4 10 7 9 10 17 5 17 -4 0 2 10 14 23 11 12 32 46 45 74 13
29 26 51 28 48 3 -2 11 22 18 53 7 31 20 64 28 74 8 9 17 31 20 50 2 18 13 49
23 68 9 19 26 52 36 73 23 46 70 90 86 81 7 -4 8 -3 4 4 -4 8 0 12 11 12 15 0
16 2 3 10 -8 5 -10 10 -4 10 6 0 12 22 13 51 1 29 4 56 8 61 8 14 7 111 -3
188 -4 36 -8 77 -7 93 0 15 -4 27 -10 27 -5 0 -7 7 -3 15 3 8 2 15 -3 15 -4 0
-6 13 -3 30 2 16 9 28 16 27 18 -3 26 -21 13 -29 -9 -6 -7 -11 6 -19 13 -8 17
-18 13 -34 -7 -27 2 -57 15 -49 5 3 9 -15 9 -40 0 -26 5 -46 11 -46 12 0 10
10 -23 158 -17 76 -23 90 -34 81 -8 -6 -14 -8 -14 -3 -1 5 -7 -2 -15 -16 l-14
-25 -1 26 c0 15 -8 44 -17 65 -9 22 -16 47 -14 57 1 9 -3 17 -8 17 -6 0 -11 5
-11 11 0 5 -10 31 -22 57 -12 26 -21 55 -20 64 0 10 -5 17 -11 15 -7 -1 -11 6
-9 17 2 10 -1 15 -6 12 -9 -5 -49 66 -50 88 0 5 -4 12 -9 15 -16 11 -32 61
-26 78 4 10 2 14 -4 10 -5 -3 -20 23 -33 61 -13 37 -27 72 -32 78 -4 6 -9 24
-10 40 -1 16 -5 34 -8 39 -4 6 -6 31 -6 57 1 25 -3 44 -8 41 -5 -3 -6 5 -3 18
3 13 11 50 18 81 6 32 16 55 20 52 4 -2 7 6 7 18 -3 43 2 79 10 75 4 -3 7 77
8 176 0 100 3 193 7 207 3 14 6 40 6 58 1 19 5 31 11 27 5 -3 7 0 4 8 -5 15
35 145 67 214 10 24 19 48 19 55 0 9 3 8 10 -2 8 -12 10 -9 10 12 0 18 13 41
38 67 21 22 36 42 33 44 -3 2 0 2 7 0 8 -1 12 3 9 9 -2 7 7 25 21 41 23 24 28
26 41 12 12 -12 13 -17 2 -27z m-4321 -60 c0 -5 -4 -8 -10 -8 -5 0 -10 10 -10
23 0 18 2 19 10 7 5 -8 10 -18 10 -22z m4580 -4 c0 -18 -24 -28 -45 -20 -13 4
-13 9 -4 24 14 22 49 18 49 -4z m-3125 -23 c62 -35 92 -146 65 -243 -32 -115
-204 -156 -291 -69 -72 71 -72 216 0 285 58 56 154 68 226 27z m231 -15 l-6
-31 23 27 c27 32 73 51 105 43 18 -4 22 -10 17 -23 -4 -9 -11 -32 -16 -49 -10
-32 -11 -32 -54 -26 -65 8 -75 -4 -75 -91 0 -116 8 -146 41 -158 55 -19 28
-28 -81 -28 -91 0 -110 3 -110 15 0 8 7 15 15 15 24 0 35 43 35 134 0 108 -8
147 -32 153 -31 9 -20 32 20 39 20 3 53 10 72 14 46 9 53 4 46 -34z m754 28
c46 -19 76 -61 86 -122 l7 -42 -110 0 -110 0 7 -37 c18 -100 75 -131 179 -98
34 11 23 -14 -18 -42 -62 -42 -139 -42 -202 0 -95 63 -99 249 -7 317 56 41
106 48 168 24z m339 1 c18 -5 21 -14 21 -56 0 -58 -10 -62 -33 -14 -22 45 -60
62 -93 40 -47 -31 -29 -67 56 -110 76 -38 97 -70 87 -132 -12 -72 -83 -111
-184 -99 -82 10 -83 11 -83 77 0 58 13 78 25 39 14 -43 55 -80 90 -80 39 0 58
19 53 57 -2 23 -14 33 -70 61 -51 26 -70 42 -83 68 -50 105 76 193 214 149z
m-3996 -46 c-4 -15 -8 -17 -14 -8 -6 11 4 28 18 29 0 0 -1 -9 -4 -21z m5777
-37 c0 -15 -2 -15 -10 -2 -13 20 -13 33 0 25 6 -3 10 -14 10 -23z m-6133 -214
c-1 -18 -8 -33 -17 -36 -13 -4 -13 -3 -2 10 10 13 10 17 0 20 -10 4 -10 8 1
21 18 23 20 22 18 -15z m5969 -33 c-3 -20 -16 -31 -16 -13 0 13 8 28 16 28 1
0 1 -7 0 -15z m-35 -22 c13 -16 12 -17 -3 -4 -10 7 -18 15 -18 17 0 8 8 3 21
-13z m-5933 -18 c-3 -14 1 -30 8 -36 9 -8 11 -31 7 -87 -8 -116 -9 -192 -2
-192 4 0 9 -10 12 -22 18 -77 40 -144 49 -149 6 -4 11 -18 11 -32 0 -18 4 -24
14 -20 7 3 13 2 11 -3 -5 -16 36 -74 52 -74 13 0 13 -1 0 -10 -12 -8 -11 -10
5 -10 12 0 26 5 32 11 7 7 13 7 17 1 4 -6 -4 -18 -16 -27 l-23 -17 30 6 c28 6
29 5 11 -8 -10 -9 -33 -15 -50 -14 -29 1 -37 10 -85 85 -30 47 -64 112 -76
146 -12 34 -27 75 -34 91 -30 73 -37 180 -13 195 16 11 29 45 35 91 3 25 4 39
1 33 -8 -19 -21 -16 -27 8 -3 12 2 28 11 39 23 25 25 24 20 -5z m5828 -141 c9
3 11 -1 7 -11 -6 -14 -8 -14 -22 4 -9 11 -23 17 -31 15 -13 -5 -13 -3 0 12 13
17 15 17 24 -3 5 -12 15 -20 22 -17z m64 -6 l-33 -31 24 -10 c17 -6 20 -11 10
-14 -10 -4 -5 -10 15 -19 24 -12 25 -13 6 -10 -13 3 -21 2 -18 -1 3 -4 1 -12
-5 -20 -8 -9 -8 -13 -1 -13 6 0 13 4 17 9 8 14 44 9 50 -6 3 -10 0 -11 -15 -3
-25 13 -31 13 -27 -2 1 -7 -5 -12 -14 -12 -14 1 -15 -4 -8 -29 5 -18 4 -38 -2
-51 -9 -20 -9 -20 5 -3 14 18 15 18 31 -7 10 -14 22 -26 29 -26 6 0 5 4 -3 9
-14 9 -9 41 7 41 5 0 15 -7 22 -15 17 -21 30 -19 30 5 0 11 5 20 11 20 7 0 9
-10 4 -27 -5 -23 -4 -25 10 -13 9 7 13 21 10 31 -4 12 -1 21 8 25 8 3 17 14
20 24 4 15 13 19 36 17 17 -1 31 -5 31 -9 0 -8 -17 -12 -34 -9 -5 1 -3 -6 5
-15 9 -12 9 -15 2 -10 -7 4 -13 2 -13 -3 0 -19 30 -12 31 7 1 11 4 9 9 -8 11
-36 11 -52 0 -45 -5 3 -10 1 -10 -4 0 -6 5 -11 10 -11 6 0 10 -5 10 -11 0 -6
-8 -9 -17 -7 -11 2 -17 11 -15 21 2 9 -2 17 -9 17 -7 0 -10 -11 -6 -32 3 -18
3 -27 0 -20 -2 6 -9 10 -13 7 -5 -3 -11 -1 -15 5 -3 5 -1 10 6 10 9 0 9 3 0
14 -9 11 -8 15 5 20 13 5 14 9 4 21 -17 21 -30 19 -30 -4 0 -11 -8 -27 -17
-37 -18 -18 -28 -78 -12 -68 15 9 10 -16 -5 -32 -8 -8 -21 -14 -28 -14 -7 0
-19 -4 -26 -8 -9 -6 7 -22 51 -52 62 -43 88 -78 93 -128 2 -15 -1 -20 -9 -15
-7 4 -7 1 1 -10 10 -12 11 -21 3 -34 -9 -16 -10 -16 -11 5 0 15 -6 22 -20 22
-20 0 -23 19 -5 32 17 12 -1 18 -33 12 -21 -4 -31 -12 -29 -23 2 -18 -3 -21
-34 -21 -11 0 -17 5 -14 10 3 6 1 10 -5 10 -7 0 -10 -6 -7 -14 3 -8 -2 -21
-11 -29 -17 -15 -72 -40 -72 -33 0 3 -3 11 -6 20 -5 12 1 16 24 16 42 0 58 22
33 44 -25 23 -17 46 12 38 35 -8 -59 77 -107 98 -25 11 -58 17 -83 15 -31 -3
-43 0 -43 10 0 7 7 16 16 19 9 4 15 9 12 12 -3 2 -17 0 -32 -5 -31 -12 -35 -1
-5 17 15 10 20 20 16 39 -3 19 1 31 15 43 12 10 18 24 16 35 -5 18 -6 18 -16
-5 -12 -27 -15 -21 -12 25 1 17 6 35 12 40 7 7 9 3 5 -12 -6 -26 10 -31 20 -7
4 10 -1 22 -11 29 -12 9 -14 15 -5 20 6 4 15 1 20 -6 8 -12 11 -12 18 1 7 10
6 17 -2 22 -8 5 -7 8 4 8 17 0 34 26 30 44 -1 5 5 4 13 -3 8 -7 20 -10 26 -6
15 9 1 28 -16 21 -7 -3 -20 1 -27 9 -11 10 -17 11 -26 2 -8 -8 -11 -8 -11 1 0
6 10 17 22 23 18 9 24 8 34 -6 15 -20 26 -15 67 32 16 19 32 31 35 28 3 -2
-10 -19 -28 -37z m136 9 c8 3 14 0 14 -7 0 -15 -33 -9 -36 8 -1 7 0 8 2 3 3
-6 12 -7 20 -4z m-86 -29 c0 -25 -3 -29 -10 -18 -13 20 -13 50 0 50 6 0 10
-15 10 -32z m-5845 -18 c-3 -5 -11 -10 -16 -10 -6 0 -7 5 -4 10 3 6 11 10 16
10 6 0 7 -4 4 -10z m5655 -5 c0 -8 -4 -15 -10 -15 -5 0 -7 7 -4 15 4 8 8 15
10 15 2 0 4 -7 4 -15z m-5650 -20 c-7 -9 -15 -13 -19 -10 -3 3 1 10 9 15 21
14 24 12 10 -5z m5694 0 c3 -9 -3 -19 -15 -25 -21 -12 -23 3 -4 27 13 16 12
16 19 -2z m-56 -30 c-3 -3 -9 2 -12 12 -6 14 -5 15 5 6 7 -7 10 -15 7 -18z
m232 21 c0 -3 -4 -8 -10 -11 -5 -3 -10 -1 -10 4 0 6 5 11 10 11 6 0 10 -2 10
-4z m-5875 -96 c0 -82 -10 -93 -18 -17 -4 42 4 87 16 87 1 0 2 -31 2 -70z m95
40 c0 -6 -9 -5 -20 2 -11 7 -20 16 -20 21 0 4 9 3 20 -3 11 -6 20 -15 20 -20z
m6170 -41 c0 -5 -7 -9 -15 -9 -9 0 -12 6 -9 15 6 15 24 11 24 -6z m-350 -5 c0
-2 -7 -4 -15 -4 -8 0 -15 4 -15 10 0 5 7 7 15 4 8 -4 15 -8 15 -10z m190 7 c0
-5 -7 -11 -15 -15 -15 -5 -20 5 -8 17 9 10 23 9 23 -2z m248 -47 c-3 -14 -5
-12 -10 9 -3 19 -2 25 4 19 6 -6 8 -18 6 -28z m-183 -13 c3 -5 1 -12 -5 -16
-5 -3 -10 1 -10 9 0 18 6 21 15 7z m-54 -34 c-10 -9 -11 -8 -5 6 3 10 9 15 12
12 3 -3 0 -11 -7 -18z m-161 3 c0 -5 -5 -10 -11 -10 -5 0 -7 5 -4 10 3 6 8 10
11 10 2 0 4 -4 4 -10z m250 0 c0 -5 -2 -10 -4 -10 -3 0 -8 5 -11 10 -3 6 -1
10 4 10 6 0 11 -4 11 -10z m1646 -15 c11 -7 26 -31 32 -53 17 -57 16 -68 -5
-50 -39 34 -87 49 -171 55 -51 4 -92 12 -100 20 -13 12 -8 17 12 14 4 -1 15 4
23 11 32 26 167 28 209 3z m-1643 -19 c9 5 9 4 0 -6 -13 -15 -37 -4 -26 13 5
8 8 8 11 -1 2 -7 9 -9 15 -6z m167 4 c0 -5 -4 -10 -10 -10 -5 0 -10 5 -10 10
0 6 5 10 10 10 6 0 10 -4 10 -10z m-294 -15 c-4 -12 0 -14 18 -9 13 3 27 1 30
-4 4 -6 -2 -8 -14 -5 -25 7 -25 -5 0 -37 22 -28 25 -40 10 -40 -5 0 -10 7 -10
16 0 8 -4 12 -10 9 -5 -3 -10 2 -10 13 0 26 -11 34 -27 20 -11 -9 -12 -7 -7 7
5 12 4 16 -3 12 -7 -5 -9 0 -6 13 3 11 12 20 20 20 9 0 13 -6 9 -15z m174 5
c0 -4 -7 -13 -15 -20 -12 -10 -15 -9 -15 7 0 11 7 20 15 20 8 0 15 -4 15 -7z
m-246 -32 c-15 -27 -27 -38 -35 -33 -4 3 -1 14 9 25 19 21 37 26 26 8z m205
-5 c-4 -22 3 -24 21 -8 11 10 20 13 20 7 0 -7 7 -12 15 -12 8 0 15 -4 15 -10
0 -5 -4 -10 -10 -10 -5 0 -7 -8 -4 -17 3 -10 -2 -5 -11 10 -9 16 -19 26 -22
23 -3 -3 -1 -11 5 -19 6 -7 9 -23 5 -35 -5 -22 -7 -22 -24 -6 -11 9 -19 13
-19 8 -1 -5 -8 4 -16 19 -14 26 -14 30 3 43 21 16 23 16 22 7z m-7195 -32 c4
-5 3 -11 -1 -14 -5 -2 -2 -2 5 -1 18 5 77 -31 77 -46 0 -8 17 -23 38 -34 26
-14 33 -22 25 -28 -21 -13 -38 -9 -32 7 4 9 0 15 -7 16 -8 1 -26 3 -41 5 -16
1 -28 -2 -28 -9 0 -6 -6 -2 -14 9 -10 13 -11 23 -4 31 8 10 5 13 -9 13 -10 0
-24 5 -31 12 -9 9 -12 9 -12 0 0 -7 4 -12 8 -12 4 0 8 -9 9 -20 1 -15 -2 -17
-15 -10 -9 5 -29 11 -44 15 -16 3 -28 10 -28 15 0 5 7 6 17 3 10 -4 14 -2 10
4 -4 6 6 16 23 22 17 5 30 15 30 20 0 13 17 14 24 2z m1080 -16 c3 -8 0 -17
-7 -21 -7 -4 -9 -3 -4 1 4 5 -1 17 -10 27 -15 17 -15 18 -1 13 9 -4 19 -13 22
-20z m5939 6 c3 -14 1 -18 -9 -14 -15 6 -18 16 -7 26 9 10 10 9 16 -12z
m-7426 -24 c8 3 13 0 11 -8 -2 -7 3 -14 10 -15 6 -1 17 -2 23 -3 5 0 8 -5 5
-10 -4 -5 0 -12 6 -14 7 -3 -3 -6 -22 -6 -19 -1 -50 8 -68 19 -18 11 -44 20
-57 20 -14 0 -25 5 -25 11 0 13 40 5 82 -16 l27 -13 -16 26 c-9 15 -11 22 -4
15 8 -6 20 -9 28 -6z m534 -20 c-8 -8 -14 -7 -23 2 -11 11 -10 13 5 8 12 -4
17 -1 18 11 0 12 2 13 6 4 3 -8 0 -19 -6 -25z m-664 -7 c1 -11 -2 -22 -8 -25
-5 -4 -9 -1 -9 4 0 6 -8 11 -17 12 -11 0 -13 3 -5 6 6 2 10 9 6 14 -3 5 3 9
13 9 12 0 19 -8 20 -20z m312 2 c-7 -3 -22 -9 -31 -13 -11 -6 -19 -5 -24 3 -4
6 -3 8 4 4 6 -3 17 0 24 8 7 7 19 11 27 8 13 -5 13 -6 0 -10z m-84 -2 c3 -5 2
-10 -4 -10 -5 0 -13 5 -16 10 -3 6 -2 10 4 10 5 0 13 -4 16 -10z m155 0 c0 -5
-8 -10 -17 -10 -15 0 -16 2 -3 10 19 12 20 12 20 0z m1235 -19 c-3 -6 -11 -11
-17 -11 -6 0 -6 6 2 15 14 17 26 13 15 -4z m6173 8 c-10 -5 -18 -17 -18 -25 0
-8 5 -12 10 -9 6 3 10 1 10 -4 0 -13 -3 -13 -24 -5 -9 3 -16 12 -16 20 0 8 -6
14 -12 15 -15 1 31 17 52 18 11 0 11 -2 -2 -10z m-7724 -25 c5 -12 2 -15 -10
-10 -8 3 -23 6 -32 7 -14 0 -13 2 3 9 29 12 32 12 39 -6z m281 6 c3 -6 -1 -7
-9 -4 -18 7 -21 14 -7 14 6 0 13 -4 16 -10z m560 -18 c-2 -2 -23 -1 -47 4 -37
6 -40 8 -18 14 22 5 74 -9 65 -18z m45 8 c8 -5 11 -12 7 -16 -4 -4 -15 0 -24
9 -18 18 -8 23 17 7z m120 -25 c0 -2 -6 -7 -12 -11 -7 -4 -10 -4 -6 1 4 4 0
14 -10 22 -15 13 -15 13 6 3 12 -6 22 -13 22 -15z m5966 -10 c9 -37 0 -40 -13
-5 -6 17 -7 30 -2 30 5 0 11 -11 15 -25z m853 -33 c1 -7 -4 -10 -10 -6 -7 4
-9 0 -5 -14 5 -15 1 -21 -16 -27 -39 -12 -63 -10 -64 5 -1 8 -3 18 -4 23 -10
31 8 65 23 43 6 -8 10 -8 14 2 2 6 11 12 19 12 9 0 12 -5 8 -12 -4 -7 -3 -8 4
-4 7 4 12 15 13 24 1 18 16 -21 18 -46z m-8079 14 c19 -8 29 -15 22 -16 -7 0
-22 5 -33 11 -19 10 -20 9 -9 -11 10 -18 8 -25 -9 -41 -11 -10 -26 -16 -34
-13 -16 6 -16 39 1 56 7 7 12 21 12 33 0 13 3 16 8 8 4 -7 23 -19 42 -27z
m123 5 c-5 -3 -12 -14 -16 -23 -3 -10 -12 -18 -19 -18 -8 0 -9 3 -3 8 6 4 17
20 25 35 8 16 16 23 18 17 3 -7 0 -15 -5 -19z m127 18 c8 -1 2 -5 -15 -9 -28
-7 -29 -8 -5 -10 14 -1 34 -6 45 -11 14 -6 5 -7 -29 -3 -33 4 -46 2 -41 -5 3
-6 1 -11 -4 -11 -6 0 -11 6 -11 14 0 8 -9 21 -20 29 -17 12 -15 13 23 11 23
-2 49 -4 57 -5z m1047 -5 c-3 -3 -12 -4 -19 -1 -8 3 -5 6 6 6 11 1 17 -2 13
-5z m-1227 -29 c-7 -8 -17 -15 -23 -15 -5 0 -2 9 8 20 21 23 35 19 15 -5z
m1061 -16 c44 -23 78 -44 75 -46 -2 -2 -12 0 -23 6 -10 5 -36 18 -58 27 -22
10 -42 21 -45 24 -3 3 -16 11 -30 17 -14 6 -19 12 -12 12 8 1 50 -18 93 -40z
m144 21 c3 -6 -1 -7 -9 -4 -18 7 -21 14 -7 14 6 0 13 -4 16 -10z m-1344 -70
c6 0 8 -4 5 -8 -2 -4 -1 -14 5 -22 7 -12 9 -12 9 3 0 15 7 17 41 14 22 -2 45
-10 52 -16 9 -10 9 -12 -3 -9 -10 2 -14 -3 -12 -14 2 -10 -2 -18 -8 -18 -13 0
-13 -47 0 -55 5 -3 16 7 24 23 8 16 26 33 38 37 44 13 81 15 94 4 7 -6 28 -9
46 -8 19 2 44 -5 60 -15 21 -14 34 -16 55 -9 16 5 44 6 63 2 19 -5 44 -5 55
-2 23 7 139 6 174 -1 12 -3 29 -10 36 -16 10 -8 20 -8 33 -1 23 12 45 9 66 -8
11 -9 16 -10 16 -2 0 7 27 -7 60 -29 33 -22 68 -40 77 -38 12 2 17 -4 18 -22
1 -14 7 -38 13 -54 7 -15 13 -40 14 -55 1 -14 6 -29 11 -32 5 -4 0 -10 -12
-14 -20 -6 -30 -25 -12 -25 4 0 8 -13 7 -30 -1 -17 -7 -30 -13 -30 -7 0 -13
-4 -13 -10 0 -5 4 -10 9 -10 5 0 4 -11 -2 -24 -7 -13 -16 -22 -21 -19 -5 4 -7
-1 -3 -10 4 -10 2 -17 -4 -17 -6 0 -9 -6 -6 -14 3 -7 0 -19 -6 -25 -9 -9 -9
-14 1 -20 11 -7 10 -10 -3 -15 -9 -3 -13 -10 -10 -16 3 -5 0 -10 -7 -11 -9 0
-8 -2 2 -6 17 -7 66 -57 88 -91 8 -13 16 -45 18 -72 1 -32 10 -59 23 -76 22
-28 28 -74 10 -74 -5 0 -8 4 -5 8 2 4 1 14 -5 22 -7 12 -9 12 -9 1 0 -8 -6
-11 -16 -7 -12 4 -14 1 -9 -14 5 -14 2 -20 -9 -20 -9 0 -16 -9 -16 -20 0 -11
-5 -20 -11 -20 -7 0 -9 -9 -6 -22 4 -14 0 -29 -10 -41 -12 -12 -14 -20 -6 -25
6 -4 11 -16 11 -27 -1 -36 2 -41 28 -43 16 -1 33 6 44 18 9 10 37 31 61 45 24
13 40 25 36 25 -4 0 5 12 20 26 l28 26 6 -28 c3 -16 1 -40 -4 -54 -5 -14 -6
-51 -2 -83 6 -54 4 -60 -19 -82 -25 -23 -34 -45 -18 -45 4 0 13 9 20 21 7 11
19 19 25 16 17 -6 55 25 66 55 7 17 10 18 10 6 1 -11 9 -18 22 -18 19 0 19 -1
5 -16 -18 -17 -20 -24 -8 -24 20 1 35 22 43 63 7 40 5 52 -16 89 -29 50 -31
68 -10 68 8 0 15 -4 15 -10 0 -5 11 -9 25 -8 17 2 28 11 34 30 6 15 12 28 15
28 4 0 24 -19 46 -41 22 -23 43 -39 47 -36 3 4 12 -1 19 -11 12 -15 13 -14 14
15 0 76 -47 110 -143 100 -41 -3 -55 -10 -74 -33 -16 -20 -23 -24 -23 -13 0 9
-7 22 -15 29 -8 7 -15 16 -15 21 0 16 28 10 34 -7 6 -15 8 -15 24 2 9 11 40
30 68 43 41 19 58 21 80 14 41 -14 84 -87 91 -155 5 -49 2 -62 -26 -115 -18
-33 -49 -79 -69 -101 -20 -22 -56 -61 -78 -85 -55 -60 -128 -96 -210 -104 -35
-3 -64 -10 -64 -14 0 -21 35 -119 43 -119 4 0 5 -4 2 -10 -3 -5 1 -10 10 -10
9 0 14 4 11 9 -3 5 6 21 19 35 14 15 25 23 25 19 0 -4 5 -1 11 7 9 13 10 12 5
-3 -10 -30 15 -18 27 13 7 19 17 28 25 25 9 -3 12 0 9 8 -8 20 24 17 47 -5 11
-10 26 -16 32 -14 7 3 15 -2 18 -10 3 -9 1 -12 -4 -9 -6 3 -10 1 -10 -4 0 -6
8 -11 18 -11 29 0 32 -10 14 -39 l-17 -26 28 17 c15 10 38 25 52 34 22 14 30
15 50 4 14 -7 25 -20 25 -29 0 -9 9 -42 20 -74 24 -72 24 -73 -102 -241 -149
-198 -229 -311 -377 -535 -77 -118 -141 -206 -141 -196 0 10 -3 16 -6 12 -15
-14 -205 137 -324 257 -63 64 -65 65 -88 50 -26 -17 -88 -12 -94 8 -8 24 -51
-16 -80 -75 -16 -34 -27 -51 -24 -37 4 14 9 57 12 95 2 39 6 87 8 108 3 24 0
35 -6 30 -7 -3 -8 -1 -4 6 4 6 9 24 11 39 2 15 2 22 -1 16 -4 -9 -14 -7 -37 4
-25 13 -28 17 -14 20 21 4 112 -23 134 -41 46 -36 83 -77 83 -92 0 -9 4 -14 9
-11 5 4 11 1 13 -6 3 -7 47 22 105 70 135 109 223 176 251 191 12 7 20 17 16
22 -3 6 0 9 8 7 7 -2 13 2 13 7 0 6 -4 9 -9 7 -5 -2 -13 3 -17 10 -4 7 -11 9
-16 5 -4 -5 -3 -11 2 -15 6 -4 11 -14 13 -22 1 -10 -3 -8 -13 5 -10 12 -19 16
-23 10 -4 -6 -18 -11 -32 -12 -14 0 -32 -3 -40 -4 -8 -2 -15 3 -15 11 0 11 9
14 29 12 26 -3 28 -1 16 13 -11 13 -10 15 4 9 11 -4 16 -1 16 10 0 9 5 16 11
16 6 0 9 -9 6 -20 -6 -24 8 -27 17 -3 5 11 1 22 -10 30 -10 7 -15 16 -11 19 3
4 13 -1 23 -10 20 -21 44 -5 44 30 0 30 20 42 21 12 0 -19 4 -15 18 16 16 38
17 38 27 15 10 -23 11 -22 18 14 4 20 11 37 16 37 5 0 3 12 -5 26 -14 27 -11
54 6 54 5 0 9 7 9 15 0 8 -4 15 -10 15 -5 0 -10 -4 -10 -10 0 -5 -7 -10 -15
-10 -10 0 -12 -6 -8 -17 6 -17 6 -17 -11 0 -11 11 -26 15 -37 12 -14 -5 -19
-1 -19 14 0 12 -4 21 -10 21 -5 0 -10 7 -10 15 0 9 -6 12 -15 9 -8 -4 -15 -10
-15 -16 0 -5 5 -6 10 -3 14 9 12 -17 -4 -38 -18 -23 -26 -22 -23 4 1 12 -4 24
-10 26 -7 3 -13 -2 -13 -10 0 -8 -9 -17 -19 -20 -27 -7 -34 3 -14 18 14 11 12
13 -15 17 -30 4 -45 -6 -21 -14 7 -2 7 -12 0 -31 -17 -43 -14 -60 8 -54 12 3
18 0 15 -7 -5 -13 -44 -16 -44 -4 0 13 -34 -4 -52 -26 -11 -13 -18 -16 -18 -8
0 7 -4 11 -8 8 -4 -2 -14 -1 -22 5 -12 7 -11 9 5 10 l20 0 -20 8 c-11 5 -24 6
-30 3 -5 -4 -16 -7 -23 -8 -26 -4 -25 -14 0 -14 14 0 31 -7 38 -15 15 -18 -1
-20 -18 -3 -6 6 -15 8 -19 4 -4 -3 5 -18 20 -32 15 -14 25 -30 21 -36 -4 -5
-9 -6 -13 -2 -3 5 -16 15 -29 22 -18 10 -22 10 -20 0 2 -8 -6 -12 -21 -10 -17
1 -22 -2 -17 -13 7 -18 -20 -21 -28 -2 -3 6 -3 2 0 -10 5 -23 -9 -32 -21 -13
-8 13 -45 13 -45 0 0 -5 -7 -10 -15 -10 -9 0 -12 6 -8 15 5 13 2 14 -21 4 -29
-13 -35 -29 -11 -29 8 0 15 -8 15 -17 0 -13 -3 -14 -12 -5 -7 7 -20 12 -30 12
-9 0 -28 11 -42 25 -14 14 -26 20 -28 13 -2 -6 -24 -11 -51 -11 -26 1 -47 -2
-47 -5 0 -4 -23 -8 -50 -8 -47 -2 -65 8 -37 19 7 4 6 6 -4 6 -22 1 -43 -25
-33 -40 5 -9 1 -10 -14 -7 -31 8 -27 -4 12 -43 31 -32 42 -38 73 -43 7 -1 23
-13 35 -27 13 -14 29 -24 35 -22 9 3 27 -36 20 -44 -8 -8 -76 11 -70 20 4 6
-2 8 -15 5 -12 -4 -20 -3 -17 1 6 11 -44 33 -57 25 -6 -4 -9 -3 -6 2 3 5 -12
21 -33 36 -29 21 -37 23 -32 10 5 -14 3 -14 -18 3 -13 11 -27 24 -31 30 -4 5
-10 6 -14 3 -15 -16 -64 58 -75 115 -5 23 -13 82 -18 130 -5 49 -14 94 -20
100 -9 11 -20 118 -21 205 0 23 -4 31 -12 26 -8 -5 -9 0 -6 14 4 12 3 22 -2
22 -4 0 -18 28 -31 63 -37 97 -34 191 10 284 18 40 38 70 45 67 7 -3 10 11 9
43 -2 27 -3 83 -3 126 0 43 -5 86 -11 96 -9 13 -7 26 9 58 12 23 28 47 36 55
18 18 71 133 80 173 10 45 57 133 73 140 10 3 13 1 10 -7 -15 -38 -17 -51 -4
-28 8 14 15 39 15 55 1 17 5 53 11 80 7 35 6 53 -1 60 -7 7 -9 6 -4 -2 3 -6 2
-22 -3 -35 -9 -21 -10 -21 -10 -3 -1 11 -10 27 -21 35 -11 8 -20 25 -20 37 0
13 -4 23 -10 23 -5 0 -10 15 -10 34 0 19 -3 36 -7 39 -5 2 -2 2 5 0 8 -1 18
-3 23 -3z m8086 -25 c-9 -7 -13 -16 -9 -20 4 -5 1 -5 -5 -1 -7 4 -13 13 -13
21 0 15 20 25 34 17 5 -3 2 -10 -7 -17z m31 -27 c17 -17 15 -24 -6 -25 -11 -1
-18 5 -18 18 0 22 7 24 24 7z m-418 -18 c0 -5 -2 -10 -4 -10 -3 0 -8 5 -11 10
-3 6 -1 10 4 10 6 0 11 -4 11 -10z m-3840 -332 l0 -172 33 30 c62 57 96 66
146 39 43 -22 51 -60 51 -236 0 -138 2 -159 17 -167 11 -7 -5 -9 -55 -9 -58 1
-69 4 -60 15 8 9 11 73 11 188 0 147 -3 178 -16 192 -19 18 -44 10 -95 -33
l-32 -27 0 -153 c0 -119 3 -157 14 -168 12 -12 5 -14 -53 -14 l-68 0 14 27
c19 38 15 581 -4 588 -24 7 -13 22 35 46 26 14 50 25 55 26 4 0 7 -77 7 -172z
m1882 2 c-2 -93 1 -170 5 -170 4 0 19 12 32 26 53 55 116 66 166 28 18 -14 20
-30 25 -193 4 -131 9 -182 19 -195 13 -15 8 -16 -58 -14 -65 1 -70 3 -56 18
12 13 15 50 15 193 0 164 -1 177 -19 187 -27 14 -58 0 -100 -43 l-33 -35 3
-145 c3 -94 8 -149 16 -159 11 -13 3 -15 -54 -16 -50 -1 -63 2 -55 10 9 9 12
97 12 309 0 273 -1 297 -17 304 -14 5 -6 13 37 35 30 16 57 29 60 30 3 0 4
-76 2 -170z m1987 156 c10 -11 7 -14 -14 -12 -25 1 -31 7 -18 19 10 11 19 8
32 -7z m-4026 -13 c3 -5 8 -35 12 -68 l6 -60 -24 51 c-27 55 -58 74 -123 74
l-34 0 0 -308 c0 -250 3 -311 14 -328 14 -20 13 -20 -66 -21 -44 0 -75 2 -70
6 27 16 32 73 32 357 l0 294 -35 0 c-61 0 -103 -24 -125 -72 -15 -36 -19 -39
-19 -18 -1 14 2 42 5 63 l7 37 208 0 c114 0 210 -3 212 -7z m1277 -15 c58 -25
90 -71 90 -129 0 -27 -6 -64 -13 -82 -17 -40 -81 -86 -132 -94 l-37 -6 31 -24
c39 -31 58 -66 72 -135 27 -135 53 -176 102 -163 20 5 20 4 -3 -9 -16 -10 -39
-14 -65 -10 -58 7 -100 55 -115 130 -38 185 -46 203 -89 205 -14 1 -2 5 28 9
70 10 97 26 116 65 20 44 20 156 -1 196 -19 38 -68 59 -134 59 l-50 0 0 -310
c0 -297 1 -311 20 -330 l20 -20 -87 0 c-77 0 -85 2 -67 14 18 14 19 29 19 321
0 295 -1 307 -20 322 -18 13 -6 15 130 11 104 -3 161 -9 185 -20z m3130 -5
c-8 -3 -18 -11 -22 -17 -5 -7 -8 -4 -8 7 0 11 7 17 23 16 15 0 17 -2 7 -6z
m-680 -81 c0 -15 -2 -15 -10 -2 -13 20 -13 33 0 25 6 -3 10 -14 10 -23z
m-2204 10 c24 -15 26 -50 5 -71 -12 -12 -25 -21 -31 -21 -15 0 -50 38 -50 54
0 33 48 57 76 38z m1607 -154 l42 -1 -42 -4 -43 -4 0 -177 c0 -218 2 -225 46
-220 20 2 30 0 25 -5 -5 -5 -30 -9 -57 -9 -40 -1 -51 3 -71 26 -22 26 -23 33
-23 207 0 164 -1 179 -17 179 -12 0 -7 6 14 20 36 22 58 51 70 95 7 25 9 18
11 -37 l3 -68 42 -2z m-2446 -8 c33 -20 50 -44 63 -91 8 -28 8 -29 -29 -29
-38 0 -38 0 -44 45 -10 93 -75 113 -116 36 -18 -33 -26 -206 -12 -258 6 -23
23 -56 37 -73 21 -24 34 -30 65 -30 22 0 54 7 72 17 26 13 30 13 20 1 -20 -23
-87 -39 -133 -32 -85 14 -142 80 -155 180 -20 164 118 304 232 234z m1183 -2
c40 -25 37 -68 -4 -68 -17 0 -27 10 -39 40 -11 29 -21 40 -37 40 -36 0 -57
-17 -74 -61 -42 -105 -28 -258 30 -316 37 -38 64 -41 118 -14 37 19 38 19 21
1 -20 -22 -90 -35 -140 -26 -174 33 -182 352 -10 414 35 13 106 8 135 -10z
m696 3 c27 -12 46 -30 57 -54 26 -54 23 -67 -18 -67 -30 0 -35 3 -35 24 0 64
-39 114 -79 101 -90 -28 -85 -364 5 -399 29 -11 90 -6 110 9 10 8 24 14 29 15
6 0 -3 -9 -19 -19 -67 -45 -156 -33 -217 28 -100 100 -69 303 56 366 39 19 61
19 111 -4z m237 9 c-42 -10 -63 -27 -63 -52 0 -34 18 -55 89 -101 91 -61 111
-87 111 -148 0 -95 -84 -143 -185 -105 -24 10 -49 15 -55 11 -6 -4 -10 16 -10
57 l0 63 24 -51 c28 -60 58 -84 105 -84 44 0 71 24 71 64 0 44 -20 69 -90 111
-33 20 -69 49 -80 65 -22 31 -27 98 -9 131 12 24 64 48 99 48 21 -1 20 -2 -7
-9z m-1263 -188 c0 -154 3 -192 16 -210 l15 -22 -72 0 c-69 0 -71 1 -56 18 14
16 17 43 17 170 0 133 -2 152 -17 161 -10 5 -16 11 -13 14 13 10 96 57 103 57
4 0 7 -84 7 -188z m1379 138 c0 -39 -2 -42 -12 -25 -7 10 -23 31 -37 46 l-26
26 38 -1 38 -1 -1 -45z m891 -26 c0 -8 -4 -14 -9 -14 -6 0 -9 9 -8 19 1 22 17
18 17 -5z m-3157 -51 c-13 -2 -35 -2 -50 0 -16 2 -5 4 22 4 28 0 40 -2 28 -4z
m3772 -73 c3 -5 -1 -10 -10 -10 -9 0 -13 5 -10 10 3 6 8 10 10 10 2 0 7 -4 10
-10z m40 0 c3 -5 1 -10 -4 -10 -6 0 -11 5 -11 10 0 6 2 10 4 10 3 0 8 -4 11
-10z m-75 -34 c0 -3 -4 -8 -10 -11 -5 -3 -10 -1 -10 4 0 6 5 11 10 11 6 0 10
-2 10 -4z m-270 -36 c0 -5 -4 -10 -10 -10 -5 0 -10 5 -10 10 0 6 5 10 10 10 6
0 10 -4 10 -10z m280 -10 c0 -5 -2 -10 -4 -10 -3 0 -8 5 -11 10 -3 6 -1 10 4
10 6 0 11 -4 11 -10z m-20 -60 c0 -5 -5 -10 -11 -10 -5 0 -7 5 -4 10 3 6 8 10
11 10 2 0 4 -4 4 -10z m-110 -50 c0 -5 -4 -10 -10 -10 -5 0 -10 5 -10 10 0 6
5 10 10 10 6 0 10 -4 10 -10z m345 0 c3 -5 1 -10 -4 -10 -6 0 -11 5 -11 10 0
6 2 10 4 10 3 0 8 -4 11 -10z m-320 -48 c-8 -9 -25 20 -18 31 3 5 10 2 15 -7
6 -10 7 -20 3 -24z m-131 -11 c-9 -10 -26 18 -18 30 5 9 9 8 14 -7 4 -10 6
-21 4 -23z m653 -16 c-15 -16 -19 -13 -11 9 3 9 10 13 15 10 5 -3 3 -11 -4
-19z m-7253 -31 c9 -8 16 -22 16 -30 0 -17 -30 -19 -31 -1 0 6 -2 20 -4 30 -4
21 -1 21 19 1z m6645 -28 c0 -6 -3 -6 -6 2 -2 6 -9 9 -15 6 -12 -8 -29 16 -21
29 6 10 43 -22 42 -37z m-1604 -35 c78 -35 122 -117 109 -203 -12 -77 -52
-134 -186 -263 -70 -67 -125 -125 -121 -129 11 -10 218 -7 251 5 21 7 37 24
51 52 l20 42 1 -87 0 -88 -215 0 c-118 0 -215 3 -215 6 0 3 56 60 124 127 136
134 174 193 196 305 22 112 1 193 -61 226 -42 23 -93 17 -134 -16 -25 -19 -27
-25 -21 -70 6 -45 5 -49 -18 -60 -33 -14 -56 3 -56 44 0 40 14 63 55 88 70 43
154 51 220 21z m-5005 -3 c0 -2 -9 -25 -20 -53 l-19 -50 -1 41 c0 37 13 64 32
64 4 0 8 -1 8 -2z m3653 -9 c55 -15 104 -69 112 -121 15 -102 -39 -210 -181
-357 -52 -54 -94 -102 -94 -106 0 -4 58 -6 129 -3 111 3 133 6 152 23 l21 20
-7 -35 c-19 -86 -3 -80 -200 -80 l-176 0 40 53 c164 213 211 301 219 407 10
141 -16 200 -87 200 -44 0 -58 -13 -67 -61 -10 -48 -22 -69 -42 -69 -41 0 -55
47 -26 88 32 46 124 64 207 41z m491 -22 c83 -64 119 -157 119 -307 0 -113
-19 -188 -63 -251 -29 -40 -97 -89 -124 -89 -19 1 -18 3 6 16 59 31 88 143 88
332 0 61 -5 135 -11 164 -35 167 -131 211 -191 88 -84 -169 -48 -548 56 -590
17 -7 18 -9 3 -9 -31 -1 -93 36 -122 75 -77 100 -100 294 -52 428 28 74 56
113 112 151 53 35 126 32 179 -8z m396 11 c68 -35 85 -66 85 -151 -1 -58 -6
-82 -28 -124 -31 -61 -102 -147 -186 -229 -34 -32 -61 -62 -61 -67 0 -11 228
-7 260 5 13 5 28 15 33 21 11 16 -2 -62 -14 -85 -9 -16 -27 -18 -179 -18 -94
0 -170 3 -170 6 0 3 9 18 21 32 11 15 47 61 79 102 115 147 170 291 154 405
-11 88 -34 115 -94 115 -38 0 -57 -21 -65 -70 -4 -24 -14 -44 -25 -50 -24 -13
-26 -13 -44 6 -21 21 -20 46 3 72 46 54 156 68 231 30z m2043 -18 c-7 -27 -10
-25 -15 10 -3 22 -2 27 8 19 6 -5 10 -19 7 -29z m234 8 c-22 -14 -35 -9 -30
11 4 17 8 18 24 8 13 -8 15 -13 6 -19z m-4017 12 c-21 -13 -26 -104 -20 -388
4 -201 8 -244 20 -252 10 -7 -12 -10 -69 -10 -76 0 -83 2 -65 14 18 14 19 29
19 316 0 287 -1 302 -19 316 -18 12 -11 14 65 14 56 0 79 -3 69 -10z m3970 -3
c0 -2 -9 -10 -20 -20 -19 -16 -20 -16 -20 1 0 11 8 18 20 19 11 1 20 1 20 0z
m-4713 -49 c-3 -7 -5 -2 -5 12 0 14 2 19 5 13 2 -7 2 -19 0 -25z m4608 -8 c4
-11 10 -18 14 -16 4 3 13 1 21 -5 10 -6 11 -9 3 -9 -7 0 -13 -10 -13 -22 0
-12 3 -18 7 -15 3 4 12 -1 19 -11 7 -9 14 -12 14 -6 0 7 7 14 14 17 10 4 13 1
9 -9 -4 -10 0 -12 11 -8 9 3 16 10 16 15 0 5 9 9 20 9 13 0 18 -5 14 -15 -4
-8 -10 -12 -15 -9 -5 3 -9 1 -9 -4 0 -20 30 -21 44 -1 8 11 17 16 20 11 3 -6
1 -12 -5 -14 -7 -2 -7 -12 0 -31 6 -15 8 -34 4 -42 -5 -14 -7 -14 -24 1 -18
16 -18 15 -9 -16 7 -26 7 -30 -4 -21 -10 8 -16 8 -25 -3 -8 -10 -9 -16 -1 -21
5 -3 10 -1 10 6 0 8 4 8 16 -2 8 -7 13 -21 11 -31 -3 -10 1 -25 9 -33 8 -7 10
-16 5 -19 -5 -3 -12 2 -16 12 -6 16 -7 16 -17 -1 -7 -14 -6 -22 9 -32 12 -9
22 -10 29 -4 8 7 11 4 10 -8 0 -10 -5 -21 -11 -25 -5 -4 -1 -8 10 -8 17 0 17
-2 5 -10 -8 -5 -12 -10 -7 -10 4 0 0 -11 -9 -25 -11 -17 -12 -25 -5 -25 7 0
10 -4 7 -8 -3 -5 9 -14 27 -21 18 -7 45 -28 62 -48 l29 -35 -44 7 c-51 9 -82
25 -76 41 2 6 0 17 -6 25 -8 11 -9 10 -4 -5 5 -16 2 -17 -21 -11 -15 3 -30 10
-33 15 -3 5 -21 12 -39 15 -45 8 -45 8 -75 59 -19 33 -24 50 -18 67 8 19 9 20
15 5 4 -10 11 -14 17 -11 5 3 7 0 4 -8 -3 -8 -1 -18 4 -21 15 -9 21 43 8 57
-19 19 -27 57 -10 50 7 -2 10 -11 7 -19 -6 -17 13 -19 23 -2 4 6 -1 17 -10 24
-11 8 -13 13 -5 16 15 5 2 48 -14 48 -7 0 -18 15 -25 33 -10 29 -10 30 3 13 8
-11 21 -21 29 -22 7 -1 24 -5 37 -8 22 -6 22 -6 7 7 -13 10 -14 17 -6 25 8 8
6 15 -6 27 -9 9 -16 13 -16 9 0 -3 -7 0 -17 7 -15 13 -15 12 -5 -8 7 -12 17
-23 24 -25 7 -3 8 -10 4 -17 -6 -10 -12 -7 -25 11 -15 22 -70 41 -57 20 4 -6
2 -13 -4 -17 -6 -4 -10 5 -10 21 0 15 3 25 6 21 12 -11 36 23 29 41 -11 30
-15 82 -6 82 5 0 13 -9 16 -20z m-4545 0 c0 -5 -4 -10 -10 -10 -5 0 -10 5 -10
10 0 6 5 10 10 10 6 0 10 -4 10 -10z m4450 -26 c0 -8 -4 -12 -10 -9 -5 3 -10
10 -10 16 0 5 5 9 10 9 6 0 10 -7 10 -16z m17 -26 c-3 -8 -6 -5 -6 6 -1 11 2
17 5 13 3 -3 4 -12 1 -19z m48 4 c-3 -3 -11 0 -18 7 -9 10 -8 11 6 5 10 -3 15
-9 12 -12z m255 -42 c6 -11 7 -20 2 -20 -6 0 -12 9 -15 20 -3 11 -3 20 -1 20
2 0 8 -9 14 -20z m-3879 -120 c61 48 112 54 154 18 26 -23 26 -23 28 -201 2
-144 5 -180 17 -187 10 -7 -8 -10 -54 -10 -55 0 -67 3 -58 12 13 13 18 341 6
372 -10 26 -49 19 -96 -17 l-43 -33 -3 -151 c-2 -128 0 -154 13 -167 15 -15
11 -16 -51 -16 -53 0 -65 3 -56 12 8 8 12 61 12 170 0 136 -2 159 -16 165 -12
4 -2 15 37 39 l54 33 3 -39 3 -40 50 40z m3851 8 c-7 -7 -12 -8 -12 -2 0 14
12 26 19 19 2 -3 -1 -11 -7 -17z m601 -75 c-4 -10 -12 -21 -19 -26 -7 -4 -11
-13 -9 -20 6 -15 -39 -69 -49 -59 -5 4 -7 0 -6 -8 5 -34 0 -41 -22 -35 -20 5
-21 5 -5 -5 9 -6 15 -16 11 -21 -3 -6 -12 -5 -22 3 -13 12 -14 10 -3 -9 10
-19 9 -22 -4 -17 -11 5 -13 2 -9 -10 4 -9 1 -16 -6 -16 -10 0 -9 -5 2 -17 16
-19 14 -43 -3 -43 -6 0 -8 3 -6 8 3 4 -1 12 -8 19 -11 10 -13 6 -11 -21 3 -28
-1 -34 -26 -44 -16 -6 -28 -6 -28 -1 0 5 5 9 12 9 6 0 8 3 4 7 -4 5 -14 -1
-22 -11 -8 -11 -14 -14 -14 -7 0 8 -7 10 -19 6 -14 -4 -23 3 -40 35 -19 37
-19 44 2 41 17 -3 5 18 -15 25 -20 6 -20 8 -5 19 19 14 22 26 6 22 -6 -1 -14
4 -17 12 -3 8 0 11 7 7 6 -4 11 0 11 9 0 11 -5 15 -15 11 -8 -3 -15 -2 -15 2
0 4 -3 17 -6 30 -5 19 -3 21 12 15 11 -3 22 -11 25 -16 4 -5 10 0 14 12 l7 22
34 -21 c20 -11 32 -16 29 -10 -3 5 -1 10 4 10 6 0 11 -4 11 -10 0 -5 5 -10 11
-10 6 0 8 7 5 15 -10 26 23 29 54 6 16 -11 32 -21 36 -21 12 0 44 32 44 44 0
6 -5 4 -10 -4 -6 -10 -12 -12 -19 -5 -7 7 -1 18 21 35 17 14 38 33 47 42 21
22 32 22 24 1z m-825 -139 c-4 -3 -12 5 -18 18 -12 22 -12 22 6 6 10 -10 15
-20 12 -24z m276 -25 c-11 -18 -24 -8 -22 17 2 23 4 23 15 8 7 -9 10 -21 7
-25z m872 -61 c-4 -46 -14 -117 -23 -158 -8 -41 -16 -101 -16 -132 -1 -31 -5
-60 -9 -64 -12 -12 -9 -26 4 -18 16 10 1 -126 -16 -146 -8 -8 -21 -42 -29 -75
-9 -33 -21 -73 -28 -90 -7 -16 -11 -33 -11 -38 1 -4 -9 -11 -22 -16 -13 -5
-26 -17 -30 -26 -3 -9 -2 -13 4 -10 6 3 10 0 10 -8 0 -8 -7 -17 -15 -21 -9 -3
-15 0 -15 8 0 7 -7 19 -15 26 -10 8 -13 21 -9 33 4 12 2 17 -5 13 -6 -4 -21
14 -36 44 l-26 50 28 25 c15 13 31 25 34 25 4 0 9 7 13 15 4 11 -1 14 -23 11
-40 -4 -57 -16 -40 -27 19 -11 4 -22 -20 -14 -26 8 -18 27 19 43 38 17 39 30
3 26 l-28 -4 30 15 c29 14 23 18 -20 16 -12 0 -6 5 15 14 20 9 25 13 12 11
-18 -3 -22 -1 -18 11 3 8 6 21 6 29 0 8 6 14 14 14 47 0 106 67 111 125 1 17
12 64 24 105 12 41 23 82 24 90 7 36 20 70 26 70 3 0 13 15 20 33 17 37 36 59
45 50 3 -4 6 1 6 10 0 10 3 17 6 17 4 0 3 -37 0 -82z m-420 -35 c-10 -10 -19
5 -10 18 6 11 8 11 12 0 2 -7 1 -15 -2 -18z m129 -83 c-3 -5 3 -10 14 -10 15
0 19 -4 14 -17 -5 -13 -2 -15 13 -10 14 5 12 2 -6 -13 -20 -15 -21 -20 -8 -20
9 0 20 -5 23 -10 11 -17 -15 -40 -46 -40 -15 0 -31 -4 -34 -10 -3 -5 1 -10 9
-10 8 0 18 -5 21 -11 5 -7 -5 -8 -29 -4 -24 5 -36 3 -36 -4 0 -6 -7 -11 -16
-11 -10 0 -14 6 -11 15 7 18 -11 31 -38 26 -16 -2 -18 0 -8 10 10 10 17 10 36
0 15 -8 31 -9 47 -3 22 8 20 10 -23 16 -26 4 -45 11 -42 16 3 4 -4 6 -15 3
-26 -7 -26 14 -1 22 11 3 47 3 80 -1 44 -4 61 -3 61 6 0 6 -8 9 -17 6 -10 -3
-35 0 -56 8 -36 12 -37 13 -15 24 22 10 22 11 3 13 -11 1 0 5 25 9 25 4 49 8
53 8 5 1 5 -2 2 -8z m-250 -20 c3 -5 2 -10 -4 -10 -5 0 -13 5 -16 10 -3 6 -2
10 4 10 5 0 13 -4 16 -10z m-7801 -102 c-3 -4 -12 -8 -20 -8 -8 0 -14 4 -14 8
0 4 9 8 19 8 11 0 17 -4 15 -8z m-113 -23 c-1 -15 -24 -12 -29 3 -3 9 2 13 12
10 10 -1 17 -7 17 -13z m6589 -3 c0 -15 -24 -32 -44 -31 -20 0 -20 1 2 11 12
6 22 15 22 20 0 4 5 8 10 8 6 0 10 -4 10 -8z m1465 -2 c-3 -5 -11 -10 -16 -10
-6 0 -7 5 -4 10 3 6 11 10 16 10 6 0 7 -4 4 -10z m-7928 -16 c-3 -3 -12 -4
-19 -1 -8 3 -5 6 6 6 11 1 17 -2 13 -5z m-172 -42 c-3 -3 -11 0 -18 7 -9 10
-8 11 6 5 10 -3 15 -9 12 -12z m178 7 c-6 -6 -9 -19 -5 -27 5 -14 4 -15 -10
-2 -14 13 -14 16 1 27 20 16 29 17 14 2z m1076 -31 c-17 -16 -51 -20 -46 -5 3
11 48 27 56 21 2 -2 -3 -9 -10 -16z m-1079 -31 c0 -4 -11 -1 -24 8 -14 9 -31
13 -42 8 -16 -6 -17 -5 -6 9 12 15 16 15 43 0 16 -9 29 -20 29 -25z m2835 37
c9 -4 20 -17 25 -30 10 -25 140 -121 177 -130 28 -7 28 -12 3 -42 -16 -19 -23
-21 -39 -13 -26 14 -31 14 -31 -4 0 -12 -13 -15 -60 -15 l-60 0 0 -30 0 -30
60 0 c57 0 60 -1 60 -25 0 -24 -3 -25 -60 -25 l-60 0 0 -30 0 -30 94 0 93 0
-5 -25 -4 -25 -209 0 -209 0 0 25 c0 24 2 24 88 27 87 3 87 3 90 31 3 27 3 27
-57 27 -58 0 -61 1 -61 25 0 22 4 24 58 27 54 3 57 5 60 30 3 27 2 27 -60 30
-44 2 -62 7 -60 16 3 15 -3 15 -27 2 -14 -7 -24 -4 -41 15 -13 14 -22 27 -19
29 2 2 28 16 57 30 30 15 79 53 110 85 63 63 63 64 87 55z m605 -34 c0 -37 2
-40 27 -40 l26 0 -21 23 c-20 21 -21 24 -5 40 15 15 18 15 45 -5 20 -14 28
-27 25 -39 -3 -12 0 -19 9 -19 9 0 14 -11 14 -30 l0 -30 -60 0 c-59 0 -60 0
-59 -27 0 -16 4 -37 8 -47 7 -17 10 -15 30 17 25 41 26 42 60 23 l24 -13 -43
-47 c-41 -44 -42 -48 -29 -72 7 -14 27 -38 45 -53 30 -27 31 -28 13 -50 -17
-20 -20 -21 -39 -8 -12 8 -32 30 -46 48 l-24 33 0 -47 c0 -34 -6 -53 -20 -67
-25 -25 -85 -27 -94 -4 -13 33 -6 44 24 44 29 0 30 2 30 42 l0 41 -22 -19
c-12 -10 -35 -31 -51 -46 -29 -27 -30 -27 -46 -8 -16 20 -16 20 -85 -1 -56
-17 -70 -18 -77 -7 -17 26 -9 45 21 52 29 5 30 7 30 66 0 57 -1 60 -25 60 -34
0 -37 47 -2 52 18 2 23 10 25 46 3 39 1 42 -22 42 -22 0 -26 4 -26 30 l0 30
74 0 c62 0 74 -3 78 -17 8 -29 -2 -43 -28 -43 -23 0 -25 -3 -22 -42 2 -36 7
-44 26 -46 34 -5 31 -52 -3 -52 -23 0 -25 -3 -25 -51 l0 -51 30 7 c24 5 30 3
30 -10 0 -12 17 -3 60 31 l60 47 0 58 0 59 -60 0 -60 0 0 30 0 30 60 0 60 0 0
40 c0 38 2 40 30 40 28 0 30 -2 30 -40z m1415 20 c6 -18 15 -20 96 -20 l89 0
0 -56 0 -55 -32 3 c-29 3 -33 7 -33 31 l1 27 -153 0 -153 0 0 -30 c0 -27 -3
-30 -30 -30 -30 0 -30 1 -30 55 l0 55 91 0 c57 0 88 4 84 10 -10 17 5 30 35
30 20 0 31 -6 35 -20z m491 5 c5 -12 26 -15 100 -15 94 0 94 0 94 -25 l0 -25
-225 0 -225 0 0 25 c0 25 1 25 91 25 67 0 94 4 105 15 9 8 24 15 35 15 11 0
22 -7 25 -15z m334 -30 c0 -41 2 -45 25 -45 21 0 25 -5 25 -30 0 -28 -11 -36
-42 -31 -13 2 -9 -8 18 -55 24 -40 25 -48 13 -70 l-13 -25 -13 23 c-11 20 -12
8 -13 -84 l0 -108 -25 0 c-25 0 -25 1 -26 83 l-1 82 -15 -37 c-19 -46 -28 -47
-41 -9 -8 23 -6 38 14 78 14 27 27 66 31 86 5 35 4 37 -21 37 -22 0 -26 4 -26
30 0 27 3 30 30 30 29 0 30 2 30 45 0 41 2 45 25 45 23 0 25 -4 25 -45z m234
19 c6 -24 10 -26 59 -22 48 3 52 1 55 -19 3 -18 -2 -23 -17 -23 -12 0 -21 -4
-21 -9 0 -5 -3 -16 -6 -25 -5 -12 0 -16 19 -16 33 0 40 -11 31 -55 -5 -28 -11
-35 -29 -35 -15 0 -26 8 -30 20 -6 18 -15 20 -96 20 -82 0 -89 -1 -89 -20 0
-15 -7 -20 -25 -20 -23 0 -25 4 -25 45 0 43 1 45 29 45 25 0 28 3 23 25 -3 20
-9 24 -23 20 -15 -5 -19 -1 -19 19 0 27 6 30 68 26 28 -1 32 1 32 24 0 22 5
26 29 26 23 0 30 -6 35 -26z m-2157 8 c9 -6 6 -21 -12 -61 -23 -50 -25 -63
-25 -222 l0 -169 -30 0 -30 0 0 121 c0 108 -2 120 -15 109 -9 -7 -17 -11 -19
-9 -36 47 -36 49 5 102 21 29 47 71 56 94 18 43 40 54 70 35z m-3793 -28 c16
-6 12 -24 -5 -24 -6 0 -8 4 -5 9 4 5 0 12 -6 14 -7 3 -10 6 -6 6 3 1 13 -2 22
-5z m4079 -10 c13 -8 1 -26 -68 -108 -99 -116 -148 -188 -143 -213 3 -15 16
-18 82 -21 88 -3 96 1 96 56 0 34 2 35 38 26 24 -7 27 -21 12 -76 -18 -65 -30
-70 -146 -66 -91 3 -106 6 -125 25 -47 46 -28 100 83 240 32 40 58 76 58 80 0
5 -34 7 -75 5 l-75 -4 0 34 0 33 124 -1 c68 -1 130 -6 139 -10z m517 -14 l0
-30 -135 0 -135 0 0 -40 0 -40 115 0 115 0 -4 -37 c-3 -21 -8 -68 -11 -105
-10 -126 -29 -148 -126 -148 -36 0 -49 4 -49 14 0 8 -3 21 -6 30 -5 13 2 16
44 16 48 0 51 1 60 33 6 17 13 56 16 85 l5 52 -84 0 c-68 0 -85 -3 -85 -15 0
-40 -45 -128 -86 -170 -25 -25 -50 -45 -55 -45 -4 0 -15 10 -24 23 -14 22 -13
26 30 70 49 51 69 103 80 211 l7 66 -61 0 -61 0 0 30 0 30 225 0 225 0 0 -30z
m1695 20 c-3 -5 -11 -10 -16 -10 -10 0 -86 -48 -107 -67 -7 -7 -17 -13 -22
-13 -5 0 -15 -3 -24 -6 -9 -3 -16 -1 -16 5 0 6 9 11 20 11 11 0 20 4 20 9 0 5
12 14 28 20 15 6 47 22 71 36 49 28 55 30 46 15z m-6400 -10 c13 -5 14 -9 5
-9 -8 0 -24 4 -35 9 -13 5 -14 9 -5 9 8 0 24 -4 35 -9z m205 -10 c0 -5 -5 -10
-11 -10 -5 0 -7 5 -4 10 3 6 8 10 11 10 2 0 4 -4 4 -10z m-226 -16 c5 -14 4
-15 -9 -4 -17 14 -19 20 -6 20 5 0 12 -7 15 -16z m5636 -49 l0 -45 -160 0
-160 0 0 38 c0 21 3 42 7 45 3 4 75 7 160 7 l153 0 0 -45z m-5725 25 c3 -5 1
-10 -4 -10 -6 0 -11 5 -11 10 0 6 2 10 4 10 3 0 8 -4 11 -10z m295 6 c0 -2 -7
-7 -16 -10 -8 -3 -12 -2 -9 4 6 10 25 14 25 6z m7997 -10 c-2 -5 -9 -12 -17
-14 -8 -3 -10 0 -5 8 5 8 1 11 -11 8 -11 -2 -18 -10 -16 -18 3 -11 0 -11 -12
0 -26 21 -18 31 24 28 22 -1 39 -6 37 -12z m-3077 -16 c0 -20 -5 -20 -137 -18
-122 3 -138 5 -141 21 -3 15 9 17 137 17 135 0 141 -1 141 -20z m-5146 -21
c-6 -11 -24 -2 -24 11 0 5 7 7 15 4 8 -4 12 -10 9 -15z m-274 -5 c0 -2 -7 -4
-15 -4 -8 0 -15 4 -15 10 0 5 7 7 15 4 8 -4 15 -8 15 -10z m3800 -46 c22 -40
22 -42 5 -55 -26 -18 -27 -18 -54 29 -23 40 -23 42 -5 55 26 19 28 18 54 -29z
m1630 -15 l0 -53 -150 0 -150 0 0 49 c0 27 5 51 11 53 6 2 74 4 150 4 l139 0
0 -53z m-5393 -10 c-3 -10 -5 -4 -5 12 0 17 2 24 5 18 2 -7 2 -21 0 -30z
m5954 22 c6 -8 6 -35 0 -67 0 -5 -12 -8 -26 -8 -18 0 -25 5 -25 20 0 19 -7 20
-164 20 -163 0 -165 0 -168 -22 -2 -17 -11 -24 -30 -26 -27 -3 -28 -2 -28 42
0 34 4 45 17 48 44 8 419 2 424 -7z m386 -14 c4 -14 17 -20 57 -25 42 -6 52
-10 52 -26 0 -18 -8 -20 -78 -20 -71 0 -78 -2 -78 -20 0 -17 8 -19 68 -22 l67
-3 -3 -45 c-6 -69 -24 -92 -75 -88 -35 2 -43 7 -45 26 -3 19 1 22 27 22 24 0
31 4 31 20 0 17 -7 20 -43 20 -37 0 -45 -4 -60 -30 -24 -40 -73 -66 -93 -49
-21 17 -17 34 10 48 29 16 46 46 49 86 2 26 -2 30 -26 33 -23 3 -28 8 -25 25
3 19 10 22 51 25 39 3 47 6 47 23 0 27 60 27 67 0z m-4487 -15 c0 -2 -7 -7
-16 -10 -8 -3 -12 -2 -9 4 6 10 25 14 25 6z m4030 -34 c0 -9 9 -23 20 -30 28
-17 25 -27 -10 -42 -30 -12 -30 -13 -13 -32 10 -11 30 -26 46 -34 23 -12 26
-18 17 -34 -16 -31 -39 -24 -88 25 -24 25 -46 45 -48 45 -2 0 -4 -13 -4 -30 0
-41 -31 -70 -75 -70 -19 0 -35 3 -35 8 0 4 -4 13 -9 20 -6 11 -20 9 -72 -8
-60 -21 -64 -21 -76 -4 -12 16 -6 20 65 43 73 24 139 58 130 66 -2 2 -27 -7
-56 -21 -57 -27 -132 -37 -139 -18 -2 7 18 17 49 24 59 14 122 39 116 45 -2 2
-34 -5 -72 -17 -57 -17 -70 -18 -77 -7 -15 24 -11 28 39 35 39 6 43 9 22 14
-14 3 -26 14 -28 23 -3 15 11 17 147 17 137 0 151 -2 151 -18z m-3970 4 c0 -3
-4 -8 -10 -11 -5 -3 -10 -1 -10 4 0 6 5 11 10 11 6 0 10 -2 10 -4z m3522 -110
l3 -93 -156 5 c-99 3 -158 1 -162 -5 -4 -6 -18 -8 -32 -5 -25 4 -25 6 -25 98
l0 94 184 0 185 0 3 -94z m-2633 -151 l0 -20 -9 20 c-5 11 -9 27 -9 35 -1 13
0 13 9 0 5 -8 9 -24 9 -35z m-2406 -25 c3 -11 1 -18 -4 -14 -5 3 -9 12 -9 20
0 20 7 17 13 -6z m3576 -39 c-3 -6 -10 -7 -18 -2 -7 5 -10 14 -6 21 9 14 29
-2 24 -19z m-909 -43 c12 -35 26 -67 30 -72 10 -10 2 -36 -11 -36 -5 0 -9 5
-9 11 0 6 -15 44 -34 85 -31 65 -33 74 -17 74 13 0 25 -17 41 -62z m80 -3 c22
-59 40 -83 40 -53 0 6 2 9 5 6 7 -6 -15 -58 -25 -58 -3 0 -12 16 -19 35 -7 19
-17 35 -22 35 -6 0 -8 4 -5 8 2 4 -4 27 -14 50 -18 39 -18 42 -2 42 13 0 25
-19 42 -65z m30 61 c0 -3 -4 -8 -10 -11 -5 -3 -10 -1 -10 4 0 6 5 11 10 11 6
0 10 -2 10 -4z m70 0 c0 -3 -4 -8 -10 -11 -5 -3 -10 -1 -10 4 0 6 5 11 10 11
6 0 10 -2 10 -4z m50 -16 c-28 -28 -27 -98 2 -136 24 -30 8 -25 -29 9 -32 29
-31 90 2 122 13 14 29 25 35 25 5 0 1 -9 -10 -20z m104 -6 c43 -44 30 -115
-26 -145 l-21 -12 21 28 c29 37 30 107 2 135 -11 11 -16 20 -11 20 4 0 20 -12
35 -26z m86 -59 c0 -74 -2 -85 -17 -85 -16 0 -18 11 -18 85 0 74 2 85 18 85
15 0 17 -11 17 -85z m95 65 c21 -23 15 -44 -17 -61 -19 -9 -21 -9 -10 2 18 19
15 56 -5 68 -15 9 -16 10 -2 11 9 0 24 -9 34 -20z m77 -70 c-3 -70 -7 -90 -18
-90 -11 0 -14 19 -14 90 0 79 2 90 18 90 15 0 17 -10 14 -90z m148 2 c0 -64
-3 -89 -12 -89 -10 0 -13 25 -13 89 0 64 3 88 13 88 9 0 12 -24 12 -88z m300
66 c0 -5 -9 -4 -20 2 -11 6 -20 12 -20 14 0 2 9 2 20 -1 11 -3 20 -9 20 -15z
m118 -65 c-2 -69 -6 -88 -18 -91 -12 -2 -15 13 -15 88 0 80 2 90 18 90 16 0
17 -9 15 -87z m86 68 c17 -18 13 -51 -7 -51 -6 0 0 -11 13 -25 22 -23 22 -25
6 -50 -20 -30 -42 -35 -26 -6 14 28 13 38 -11 59 -17 17 -18 20 -5 25 19 7 21
38 4 55 -7 7 -8 12 -2 12 6 0 18 -8 28 -19z m81 -71 c0 -78 -2 -90 -17 -90
-14 0 -17 14 -20 90 -3 84 -2 90 17 90 19 0 20 -7 20 -90z m67 0 c-3 -76 -6
-90 -20 -90 -15 0 -17 12 -17 90 0 83 1 90 20 90 19 0 20 -6 17 -90z m150 0
c-3 -76 -6 -90 -20 -90 -15 0 -17 12 -17 90 0 83 1 90 20 90 19 0 20 -6 17
-90z m150 0 c-3 -76 -6 -90 -20 -90 -15 0 -17 12 -17 90 0 83 1 90 20 90 19 0
20 -6 17 -90z m78 70 c-22 -22 -28 -97 -9 -131 9 -18 8 -19 -9 -10 -31 17 -44
66 -28 106 8 18 22 38 33 44 29 17 35 13 13 -9z m105 -12 c39 -46 27 -110 -28
-139 -17 -10 -17 -8 3 20 18 23 22 38 17 71 -3 23 -13 50 -23 61 -9 10 -12 19
-6 19 5 0 22 -14 37 -32z m140 -37 c50 -64 68 -101 47 -101 -4 0 -33 34 -63
75 -29 41 -60 75 -66 75 -21 0 -14 20 7 20 12 0 40 -26 75 -69z m57 34 c-2
-19 -5 -35 -7 -35 -2 0 -5 16 -7 35 -2 21 0 35 7 35 7 0 9 -14 7 -35z m148
-46 c19 -45 37 -86 38 -90 2 -5 -4 -9 -12 -9 -9 0 -19 8 -22 18 -8 24 -33 80
-56 125 -17 35 -17 37 -1 37 13 0 28 -24 53 -81z m105 -9 c0 -79 -2 -90 -17
-90 -16 0 -18 11 -18 90 0 79 2 90 18 90 15 0 17 -11 17 -90z m65 16 c0 -41 3
-81 6 -90 4 -11 0 -16 -14 -16 -19 0 -21 7 -24 90 -3 80 -1 90 15 90 15 0 17
-10 17 -74z m91 64 c10 -6 19 -19 19 -30 0 -21 -25 -50 -43 -50 -8 0 -7 4 1
12 18 18 15 55 -5 67 -24 14 2 14 28 1z m79 -75 c0 -47 -2 -85 -4 -85 -2 0
-10 -2 -18 -5 -10 -4 -13 14 -13 85 0 79 2 90 18 90 15 0 17 -11 17 -85z m95
74 c11 -16 2 -17 -25 -2 -24 12 -24 13 -3 13 12 0 25 -5 28 -11z m63 0 c-32
-18 -19 -39 37 -64 45 -19 55 -28 55 -48 0 -14 -6 -30 -14 -36 -11 -9 -12 -6
-8 14 4 22 -2 27 -44 45 -49 21 -64 35 -64 57 0 15 28 43 43 43 7 0 4 -5 -5
-11z m204 -77 c-3 -69 -7 -89 -18 -89 -11 0 -14 19 -14 89 0 77 2 88 18 88 15
0 17 -10 14 -88z m153 -2 c0 -75 -3 -90 -16 -90 -13 0 -15 15 -15 90 1 73 4
90 16 90 12 0 15 -17 15 -90z m195 86 c0 -2 -7 -9 -15 -16 -12 -10 -15 -10
-15 4 0 9 7 16 15 16 8 0 15 -2 15 -4z m63 -83 c-1 -70 -4 -89 -16 -91 -13 -3
-15 11 -14 87 2 74 5 91 17 91 12 0 15 -16 13 -87z m67 65 c0 -17 -3 -19 -9
-9 -5 7 -15 17 -22 22 -10 6 -8 9 9 9 16 0 22 -6 22 -22z m-6005 2 c3 -5 1
-10 -4 -10 -6 0 -11 5 -11 10 0 6 2 10 4 10 3 0 8 -4 11 -10z m3458 -7 c39
-44 28 -106 -25 -134 -22 -11 -22 -11 -6 7 9 10 19 30 23 44 7 28 -9 80 -28
92 -8 5 -7 8 4 8 9 0 23 -8 32 -17z m93 -5 c-1 -17 9 -26 39 -38 22 -8 46 -19
53 -23 16 -11 15 -52 -2 -66 -11 -9 -12 -6 -8 14 4 22 -1 28 -46 46 -55 23
-68 40 -52 70 14 25 17 24 16 -3z m1854 12 c0 -5 -2 -10 -4 -10 -3 0 -8 5 -11
10 -3 6 -1 10 4 10 6 0 11 -4 11 -10z m323 -10 c-4 -16 5 -24 51 -44 46 -20
56 -29 56 -49 0 -14 -6 -30 -14 -36 -11 -9 -12 -6 -8 14 4 22 -1 28 -47 46
-53 22 -71 49 -51 74 16 20 19 19 13 -5z m97 10 c0 -5 -2 -10 -4 -10 -3 0 -8
5 -11 10 -3 6 -1 10 4 10 6 0 11 -4 11 -10z m-610 -62 c0 -16 -3 -19 -11 -11
-6 6 -8 16 -5 22 11 17 16 13 16 -11z m-2118 -44 c32 -46 35 -58 9 -45 -21 12
-66 94 -47 88 6 -2 23 -21 38 -43z m1575 24 c-3 -8 -6 -5 -6 6 -1 11 2 17 5
13 3 -3 4 -12 1 -19z m387 -4 c9 -8 16 -22 16 -30 0 -8 10 -19 23 -23 20 -8
21 -10 4 -16 -21 -9 -47 14 -65 58 -13 30 -2 36 22 11z m-5161 -25 c5 -3 2 -9
-7 -12 -12 -5 -16 0 -16 15 0 12 3 17 8 12 4 -5 11 -12 15 -15z m4828 -2 c-10
-9 -11 -8 -5 6 3 10 9 15 12 12 3 -3 0 -11 -7 -18z m4313 -13 c8 -21 -12 -17
-24 6 -8 16 -8 18 4 14 8 -3 17 -12 20 -20z m-5490 -11 c17 -21 17 -21 -3 -16
-13 3 -21 13 -21 26 0 11 1 18 3 16 1 -2 10 -14 21 -26z m1755 5 c12 -15 11
-18 -3 -18 -10 0 -16 8 -16 22 0 12 1 19 3 17 1 -2 9 -12 16 -21z m420 0 c12
-15 11 -18 -3 -18 -10 0 -16 8 -16 22 0 12 1 19 3 17 1 -2 9 -12 16 -21z
m3536 12 c3 -5 1 -10 -4 -10 -6 0 -11 5 -11 10 0 6 2 10 4 10 3 0 8 -4 11 -10z
m194 1 c11 -7 5 -18 -28 -51 -41 -41 -41 -42 -41 -116 0 -43 -4 -74 -10 -74
-6 0 -10 28 -10 65 0 36 -3 65 -6 65 -3 0 -15 -5 -27 -11 l-22 -10 21 18 c24
22 68 81 77 106 7 19 24 22 46 8z m281 -11 c0 -14 5 -18 18 -14 16 5 16 5 0
-9 -13 -10 -18 -29 -18 -65 0 -63 -18 -79 -22 -20 -4 61 2 128 13 128 5 0 9
-9 9 -20z m120 -12 c-23 -4 -45 -9 -47 -12 -2 -2 -7 -35 -9 -72 -3 -37 -12
-82 -20 -98 l-14 -31 5 38 c4 26 2 37 -7 38 -10 0 -10 2 0 6 8 3 12 27 12 69
0 63 0 64 28 64 16 0 37 6 48 14 14 11 22 12 33 3 11 -10 5 -13 -29 -19z
m-6574 -6 c-17 -16 -18 -16 -5 5 7 12 15 20 18 17 3 -2 -3 -12 -13 -22z m957
8 c-3 -11 -12 -20 -21 -20 -13 0 -12 3 3 20 10 11 19 20 21 20 1 0 0 -9 -3
-20z m1381 -4 c-3 -9 -10 -16 -15 -16 -5 0 -4 9 3 20 14 22 21 20 12 -4z
m4046 -51 c0 -53 -4 -75 -12 -75 -9 0 -13 18 -11 63 2 87 2 87 13 87 6 0 10
-32 10 -75z m-5588 43 c-7 -7 -12 -8 -12 -2 0 14 12 26 19 19 2 -3 -1 -11 -7
-17z m468 7 c0 -8 -4 -15 -10 -15 -5 0 -10 7 -10 15 0 8 5 15 10 15 6 0 10 -7
10 -15z m174 0 c3 -8 1 -15 -4 -15 -6 0 -10 7 -10 15 0 8 2 15 4 15 2 0 6 -7
10 -15z m538 -7 c-7 -7 -12 -8 -12 -2 0 14 12 26 19 19 2 -3 -1 -11 -7 -17z
m4318 2 c0 -5 -9 -10 -21 -10 -11 0 -17 5 -14 10 3 6 13 10 21 10 8 0 14 -4
14 -10z m-328 -26 c-5 -32 -11 -44 -22 -44 -8 0 -8 31 -1 68 1 2 7 2 14 -1 6
-2 11 -13 9 -23z m-162 4 c0 -7 -7 -22 -15 -32 -10 -13 -15 -44 -15 -93 0 -53
-4 -73 -13 -73 -9 0 -13 17 -12 56 0 35 -4 58 -12 61 -8 3 -5 11 8 24 10 10
21 30 25 44 6 25 34 36 34 13z m70 -18 c0 -18 -5 -30 -13 -30 -7 0 -14 13 -15
30 -2 21 2 30 13 30 10 0 15 -10 15 -30z m322 -90 c-3 -70 -7 -90 -18 -90 -11
0 -14 18 -13 90 1 76 4 90 18 90 14 0 16 -12 13 -90z m418 80 c0 -5 -4 -10
-10 -10 -6 0 -10 -33 -10 -80 0 -64 -3 -80 -15 -80 -12 0 -15 15 -15 78 0 77
9 102 37 102 7 0 13 -4 13 -10z m-335 -79 c2 -56 0 -63 -19 -71 -25 -9 -43 11
-20 23 11 6 15 23 14 55 -2 62 -2 64 11 60 7 -2 13 -31 14 -67z m-475 18 c0
-6 -4 -7 -10 -4 -5 3 -10 11 -10 16 0 6 5 7 10 4 6 -3 10 -11 10 -16z m49 -50
c-1 -44 -4 -59 -15 -59 -11 0 -14 15 -14 65 0 52 3 63 14 59 11 -4 15 -22 15
-65z m131 6 c0 -49 -3 -65 -14 -65 -9 0 -15 14 -17 38 -6 57 1 92 17 92 11 0
14 -15 14 -65z m-68 33 c4 -32 -3 -78 -12 -78 -9 0 -16 46 -12 78 2 12 7 22
12 22 5 0 10 -10 12 -22z m-249 -181 c18 4 54 8 80 7 40 -1 54 -7 82 -34 47
-46 58 -78 53 -163 -3 -62 -8 -80 -31 -111 -45 -58 -70 -69 -162 -74 -46 -2
-99 -2 -119 2 l-34 7 -4 235 c-3 233 -3 236 -26 255 l-23 18 23 6 c13 2 46 8
73 13 l50 8 3 -89 3 -88 32 8z m-863 88 c0 -74 -12 -99 -24 -50 -3 13 -22 40
-41 60 -34 34 -38 35 -110 35 l-75 0 0 -115 0 -115 41 0 c53 0 74 12 90 52
l13 33 4 -48 c2 -26 2 -68 0 -95 -3 -37 -5 -43 -12 -27 -20 46 -48 65 -94 65
l-44 0 4 -106 c3 -114 13 -134 65 -134 13 0 23 -4 23 -8 0 -5 -63 -8 -140 -8
-77 1 -140 4 -140 9 0 4 9 7 20 7 11 0 27 12 37 26 15 23 17 54 17 224 -1 169
-3 202 -17 224 -10 14 -26 26 -37 26 -10 0 -22 5 -25 10 -4 7 72 10 219 10
l226 0 0 -75z m1585 56 c6 -10 -32 -51 -47 -51 -5 0 1 14 14 30 24 34 25 34
33 21z m63 -33 c-7 -19 -21 -12 -25 11 -3 20 -1 22 12 11 9 -7 14 -17 13 -22z
m-1374 -131 c67 -52 89 -167 48 -258 -31 -72 -70 -94 -169 -96 -70 -2 -86 1
-115 20 -97 65 -102 252 -10 326 47 36 62 40 143 38 55 -2 72 -7 103 -30z
m248 -9 c3 -39 4 -41 18 -25 45 54 66 67 103 67 37 0 39 -2 33 -25 -17 -67
-35 -91 -51 -65 -10 16 -67 12 -87 -7 -15 -14 -18 -32 -18 -119 0 -122 9 -154
45 -154 14 0 25 -4 25 -8 0 -5 -52 -9 -115 -9 -63 0 -115 3 -115 8 0 4 10 9
22 11 30 4 41 62 35 198 -4 90 -8 107 -26 121 -20 16 -19 17 22 27 48 13 77
19 94 21 7 1 13 -16 15 -41z m885 22 c36 -21 73 -85 73 -125 l0 -25 -121 0
-122 0 5 -52 c5 -45 11 -57 46 -90 36 -33 47 -38 90 -38 27 0 57 6 68 15 29
22 40 18 18 -6 -28 -32 -76 -49 -138 -49 -90 0 -139 28 -177 102 -51 99 9 256
106 281 49 12 121 6 152 -13z m377 9 c10 -12 16 -99 7 -99 -6 0 -11 6 -11 14
0 24 -48 73 -76 79 -40 7 -61 -2 -75 -34 -9 -24 -9 -35 1 -53 11 -22 68 -56
93 -56 7 0 29 -14 50 -31 33 -27 37 -36 37 -76 0 -96 -52 -129 -187 -121 -44
2 -85 8 -91 12 -7 4 -12 30 -12 64 l1 57 19 -37 c39 -74 116 -102 160 -58 43
43 13 97 -67 120 -23 7 -55 25 -72 41 -26 23 -31 36 -31 71 0 37 6 49 33 75
17 17 39 33 47 37 16 6 167 2 174 -5z"/>
<path d="M8533 4858 c2 -7 1 -20 -4 -28 -5 -12 -2 -16 12 -16 14 0 18 5 13 16
-3 8 -7 21 -7 28 0 6 -4 12 -9 12 -6 0 -8 -6 -5 -12z"/>
<path d="M8743 4789 c3 -9 0 -22 -6 -29 -10 -10 -7 -10 12 0 13 7 20 15 15 19
-5 3 -13 11 -18 16 -6 6 -7 4 -3 -6z"/>
<path d="M8662 4745 c-7 -8 -9 -15 -4 -15 5 0 15 7 22 15 16 19 -1 19 -18 0z"/>
<path d="M8650 4670 c0 -5 8 -6 17 -3 13 5 15 3 9 -13 -5 -14 -4 -16 5 -7 6 6
8 16 5 22 -9 14 -36 15 -36 1z"/>
<path d="M8545 4640 c3 -5 8 -10 11 -10 2 0 4 5 4 10 0 6 -5 10 -11 10 -5 0
-7 -4 -4 -10z"/>
<path d="M8597 4643 c-4 -3 -7 -14 -7 -24 0 -15 4 -17 22 -10 12 4 24 14 26
21 3 8 0 10 -8 5 -7 -4 -15 -2 -19 4 -4 6 -10 8 -14 4z"/>
<path d="M8565 4581 c3 -5 -2 -11 -10 -13 -12 -2 -11 -6 6 -16 19 -12 21 -12
16 2 -4 9 1 20 11 25 15 9 14 10 -6 11 -13 0 -21 -4 -17 -9z"/>
<path d="M8610 4575 c-8 -9 -8 -15 -2 -15 12 0 26 19 19 26 -2 2 -10 -2 -17
-11z"/>
<path d="M8530 4536 c0 -2 7 -7 16 -10 8 -3 12 -2 9 4 -6 10 -25 14 -25 6z"/>
<path d="M8980 4520 c0 -5 5 -10 11 -10 5 0 7 5 4 10 -3 6 -8 10 -11 10 -2 0
-4 -4 -4 -10z"/>
<path d="M8507 4346 c-4 -10 -13 -16 -20 -13 -8 3 -12 -4 -11 -22 1 -14 7 -25
13 -23 6 1 11 -4 11 -12 0 -8 4 -18 10 -21 6 -3 7 1 4 9 -4 9 1 18 10 22 9 3
13 11 10 16 -4 6 -9 6 -14 -2 -4 -7 -13 -9 -20 -5 -8 5 -7 12 5 25 10 11 15
25 13 31 -3 9 -7 7 -11 -5z"/>
<path d="M8472 4227 c-5 -6 -7 -20 -3 -30 6 -17 8 -16 19 7 12 27 1 44 -16 23z"/>
<path d="M8510 4210 c-18 -12 -2 -12 25 0 13 6 15 9 5 9 -8 0 -22 -4 -30 -9z"/>
<path d="M8535 4150 c4 -6 11 -8 16 -5 14 9 11 15 -7 15 -8 0 -12 -5 -9 -10z"/>
<path d="M8585 4129 c6 -30 15 -37 15 -11 0 11 -4 23 -9 27 -6 3 -8 -4 -6 -16z"/>
<path d="M8733 4128 c2 -17 0 -28 -7 -28 -6 0 -4 -5 4 -10 10 -6 17 -5 23 6 5
8 12 12 18 9 5 -4 9 -1 9 4 0 6 -5 11 -11 11 -7 0 -18 8 -26 18 -13 15 -14 15
-10 -10z"/>
<path d="M9325 4075 c-64 -14 -120 -39 -120 -54 0 -5 -12 -21 -27 -36 -16 -15
-28 -31 -28 -35 0 -8 -78 -40 -98 -40 -16 0 -16 27 1 33 8 4 7 6 -3 6 -21 1
-50 -34 -40 -49 4 -7 13 -9 21 -5 9 6 11 3 6 -11 -6 -17 -6 -17 6 -2 8 10 24
15 45 13 36 -2 57 -15 26 -15 -10 0 -15 -4 -9 -8 6 -4 16 -15 24 -25 12 -15
12 -17 -2 -12 -26 11 -29 -14 -4 -37 34 -32 44 -68 20 -68 -17 -1 -17 -2 1
-15 18 -14 16 -15 -30 -16 l-49 -1 60 -14 c33 -8 65 -16 70 -17 6 -2 21 -10
35 -19 14 -9 37 -19 53 -22 15 -3 39 -9 55 -12 l27 -6 -25 -11 c-25 -10 -25
-10 10 -16 19 -4 36 -3 38 1 2 4 18 4 35 1 29 -6 30 -5 17 9 -15 14 -31 20
-110 37 -60 13 -100 34 -100 53 0 22 1 22 47 3 35 -15 105 -21 73 -7 -8 4 -16
13 -18 20 -2 10 7 11 33 6 56 -10 80 1 98 46 14 36 19 40 42 36 15 -3 41 -16
59 -29 29 -23 46 -26 106 -18 2 1 -12 12 -33 26 -20 14 -37 29 -37 34 0 5 -43
14 -96 22 -111 15 -101 30 16 22 77 -5 97 -11 125 -39 12 -12 19 -14 27 -6 8
8 6 13 -7 18 -18 7 -18 8 1 14 15 6 11 10 -22 19 -88 24 -235 18 -348 -15 -53
-15 -59 -14 -61 15 -1 12 3 17 12 14 7 -3 13 0 13 6 0 6 -12 16 -26 21 -37 14
-21 29 21 20 32 -7 34 -6 23 8 -11 13 -10 15 4 9 11 -4 17 -2 15 6 -2 14 191
30 208 17 6 -4 30 -10 53 -13 63 -8 156 -57 160 -84 2 -14 -3 -23 -15 -27 -22
-7 -27 -42 -7 -50 22 -8 38 2 52 34 8 17 21 30 31 30 12 0 17 7 17 22 -1 15 6
24 23 28 14 3 27 12 29 19 3 8 0 11 -7 7 -12 -8 -4 21 12 42 12 15 2 16 -24 2
-15 -8 -19 -7 -19 4 0 17 -39 48 -51 40 -5 -2 -16 7 -25 22 -19 28 -54 46 -94
48 -14 0 -31 5 -38 9 -7 5 -21 5 -33 2 -21 -7 -130 -8 -164 -1 -11 2 -47 -2
-80 -9z m-162 -169 c4 -10 1 -13 -9 -9 -7 3 -14 9 -14 14 0 14 17 10 23 -5z
m37 -36 c0 -5 -7 -10 -15 -10 -8 0 -15 5 -15 10 0 6 7 10 15 10 8 0 15 -4 15
-10z m21 -58 c-7 -2 -18 1 -23 6 -8 8 -4 9 13 5 13 -4 18 -8 10 -11z"/>
<path d="M8625 4071 c-6 -11 9 -23 19 -14 9 9 7 23 -3 23 -6 0 -12 -4 -16 -9z"/>
<path d="M8729 4033 c6 -12 8 -29 4 -39 -4 -11 -2 -15 7 -12 22 7 21 21 -1 48
-17 21 -19 22 -10 3z"/>
<path d="M8811 4008 c0 -16 2 -18 6 -8 3 8 11 18 17 22 7 5 4 8 -6 8 -12 0
-18 -7 -17 -22z"/>
<path d="M10220 4009 c0 -5 5 -7 10 -4 6 3 10 8 10 11 0 2 -4 4 -10 4 -5 0
-10 -5 -10 -11z"/>
<path d="M9076 3951 c-4 -5 3 -7 14 -4 23 6 26 13 6 13 -8 0 -17 -4 -20 -9z"/>
<path d="M8860 3886 c0 -2 8 -10 18 -17 15 -13 16 -12 3 4 -13 16 -21 21 -21
13z"/>
<path d="M8940 3870 c0 -5 5 -10 11 -10 5 0 7 5 4 10 -3 6 -8 10 -11 10 -2 0
-4 -4 -4 -10z"/>
<path d="M8962 3847 c-7 -8 -9 -16 -6 -19 2 -3 -2 -8 -10 -11 -11 -4 -13 -1
-9 10 4 11 2 14 -5 9 -7 -4 -12 -13 -12 -20 0 -14 67 -46 99 -46 20 0 21 2 7
28 -8 15 -23 35 -34 45 -16 15 -21 15 -30 4z"/>
<path d="M9015 3850 c-3 -5 3 -10 14 -10 12 0 21 5 21 10 0 6 -6 10 -14 10 -8
0 -18 -4 -21 -10z"/>
<path d="M9780 3820 c0 -5 7 -7 15 -4 8 4 15 8 15 10 0 2 -7 4 -15 4 -8 0 -15
-4 -15 -10z"/>
<path d="M9844 3695 c3 -8 1 -15 -4 -15 -6 0 -5 -9 2 -20 7 -11 16 -16 21 -11
10 10 -2 61 -15 61 -6 0 -8 -7 -4 -15z"/>
<path d="M9370 3676 c0 -2 9 -6 20 -9 11 -3 20 -1 20 4 0 5 -9 9 -20 9 -11 0
-20 -2 -20 -4z"/>
<path d="M9275 3580 c-3 -5 1 -10 10 -10 9 0 13 5 10 10 -3 6 -8 10 -10 10 -2
0 -7 -4 -10 -10z"/>
<path d="M10145 3570 c27 -30 84 -53 100 -40 8 6 15 6 23 -2 8 -8 12 -9 12 -1
0 6 -14 16 -31 22 -42 14 -44 14 -28 -5 11 -13 7 -13 -24 2 -20 10 -37 21 -37
25 0 4 -8 10 -17 13 -14 6 -14 4 2 -14z"/>
<path d="M9710 3390 c-9 -6 -10 -10 -3 -10 6 0 15 5 18 10 8 12 4 12 -15 0z"/>
<path d="M9745 3360 c3 -5 8 -10 11 -10 2 0 4 5 4 10 0 6 -5 10 -11 10 -5 0
-7 -4 -4 -10z"/>
<path d="M9710 3336 c0 -14 -5 -28 -10 -31 -18 -11 -48 -84 -55 -134 -5 -39
-3 -57 11 -81 10 -16 23 -29 29 -26 5 2 18 -1 28 -6 11 -6 17 -5 17 2 0 6 10
1 22 -10 13 -12 31 -19 42 -16 12 3 20 -2 23 -15 3 -10 8 -19 12 -19 4 0 7 -8
7 -17 1 -10 3 -25 5 -33 6 -21 68 -29 102 -13 16 8 27 10 27 3 0 -5 5 -10 11
-10 5 0 7 5 4 10 -4 6 16 32 44 57 44 40 51 52 51 84 0 34 3 37 34 43 27 5 37
13 45 38 15 42 14 53 -4 38 -21 -18 -122 6 -136 31 -10 19 -14 19 -124 -1 -27
-5 -74 -11 -102 -14 -48 -5 -53 -3 -53 14 0 11 -4 20 -10 20 -5 0 -10 5 -10
11 0 5 5 7 12 3 7 -4 8 -3 4 5 -4 6 -2 19 6 28 10 13 10 17 1 20 -7 3 -13 13
-13 24 0 10 -4 19 -10 19 -5 0 -10 -11 -10 -24z"/>
<path d="M9578 3262 c-25 -28 -58 -53 -84 -62 -13 -5 -23 -14 -22 -19 3 -10
-125 -101 -142 -101 -6 0 -10 -6 -10 -14 0 -7 -9 -16 -21 -19 -12 -3 -18 -10
-15 -15 3 -5 -3 -12 -14 -15 -11 -3 -20 -12 -20 -20 0 -11 10 -13 45 -9 26 2
45 1 45 -5 0 -6 13 -6 35 1 37 11 44 31 25 67 -7 13 -7 19 0 19 5 0 10 -5 10
-12 0 -6 7 -19 16 -29 14 -15 18 -16 45 -2 21 10 27 19 20 26 -6 6 -15 4 -27
-7 -14 -14 -19 -15 -25 -4 -5 7 -4 15 2 17 6 2 -2 12 -18 22 -26 17 -26 19 -6
19 12 0 26 6 30 13 4 7 45 44 91 81 45 37 82 69 82 71 0 12 -30 10 -42 -3z"/>
<path d="M9020 3189 c0 -5 5 -7 10 -4 6 3 10 8 10 11 0 2 -4 4 -10 4 -5 0 -10
-5 -10 -11z"/>
<path d="M8966 3154 c-9 -23 -2 -28 13 -10 7 8 8 17 3 20 -6 3 -13 -1 -16 -10z"/>
<path d="M10166 3154 c-5 -12 -2 -15 10 -10 8 3 18 6 20 6 3 0 2 5 -1 10 -9
15 -22 12 -29 -6z"/>
<path d="M9072 3148 c2 -7 -7 -14 -19 -16 -26 -4 -30 -17 -7 -26 8 -3 13 -2
10 3 -3 5 6 9 19 9 18 0 25 -6 25 -20 0 -15 5 -19 20 -15 22 6 28 -8 8 -16
-10 -3 -10 -8 1 -18 8 -8 11 -9 8 -3 -9 15 19 38 34 28 7 -4 10 -2 7 7 -3 8
-15 20 -29 26 l-24 13 24 0 c24 0 24 0 5 21 l-18 20 -8 -20 c-4 -12 -12 -21
-18 -21 -6 0 -8 4 -5 10 4 6 -1 7 -11 3 -11 -4 -15 -3 -10 5 3 6 2 14 -4 17
-6 4 -9 1 -8 -7z"/>
<path d="M8985 3109 c-4 -6 -5 -12 -2 -15 2 -3 7 2 10 11 7 17 1 20 -8 4z"/>
<path d="M8872 3090 c0 -14 2 -19 5 -12 2 6 2 18 0 25 -3 6 -5 1 -5 -13z"/>
<path d="M9040 3080 c0 -13 11 -13 30 0 12 8 11 10 -7 10 -13 0 -23 -4 -23
-10z"/>
<path d="M10240 3070 c0 -5 7 -10 16 -10 8 0 12 5 9 10 -3 6 -10 10 -16 10 -5
0 -9 -4 -9 -10z"/>
<path d="M8810 3061 c0 -5 7 -12 16 -15 14 -5 15 -4 4 9 -14 17 -20 19 -20 6z"/>
<path d="M9469 2942 c-8 -2 -21 -6 -29 -9 -8 -3 -30 -6 -48 -8 -30 -2 -51 -17
-52 -36 0 -4 15 -12 33 -20 17 -7 34 -15 37 -18 28 -31 78 -40 265 -46 72 -3
180 -8 240 -12 73 -5 125 -4 155 3 25 7 63 16 85 20 34 8 40 13 40 34 0 22 -4
25 -35 25 -25 0 -36 5 -38 18 -4 19 -17 23 -27 7 -4 -6 -11 -8 -16 -5 -5 4
-12 -1 -15 -9 -6 -17 -64 -20 -64 -4 0 5 -10 2 -22 -6 -37 -22 -70 -25 -123
-11 -27 8 -44 14 -37 14 6 1 12 4 12 9 0 4 -33 8 -72 8 -112 2 -166 10 -182
27 -9 8 -25 13 -36 10 -11 -3 -20 -1 -20 5 0 10 -22 12 -51 4z"/>
<path d="M9140 2900 c0 -5 5 -10 11 -10 5 0 7 5 4 10 -3 6 -8 10 -11 10 -2 0
-4 -4 -4 -10z"/>
<path d="M9855 2890 c3 -5 8 -10 11 -10 2 0 4 5 4 10 0 6 -5 10 -11 10 -5 0
-7 -4 -4 -10z"/>
<path d="M8720 2879 c0 -5 5 -7 10 -4 6 3 10 8 10 11 0 2 -4 4 -10 4 -5 0 -10
-5 -10 -11z"/>
<path d="M8810 2876 c0 -9 40 -13 46 -5 3 5 -6 9 -20 9 -14 0 -26 -2 -26 -4z"/>
<path d="M8921 2851 c-8 -5 -9 -11 -3 -15 5 -3 12 1 16 9 6 17 6 18 -13 6z"/>
<path d="M8970 2800 c0 -5 7 -10 16 -10 8 0 12 5 9 10 -3 6 -10 10 -16 10 -5
0 -9 -4 -9 -10z"/>
<path d="M9258 2793 c7 -3 16 -2 19 1 4 3 -2 6 -13 5 -11 0 -14 -3 -6 -6z"/>
<path d="M10175 2749 c-11 -17 1 -21 15 -4 8 9 8 15 2 15 -6 0 -14 -5 -17 -11z"/>
<path d="M10040 2729 c0 -6 -7 -8 -16 -5 -9 4 -22 2 -28 -3 -12 -10 -106 -19
-106 -11 0 3 -17 6 -37 6 -21 1 -77 3 -125 7 -49 3 -90 2 -93 -3 -3 -5 -12 -7
-20 -3 -8 3 -15 0 -15 -6 0 -6 6 -11 13 -11 8 0 7 -3 -3 -10 -13 -8 -13 -11 1
-22 24 -20 60 -84 51 -93 -4 -4 6 -5 21 -1 18 4 26 3 23 -3 -9 -13 34 -19 142
-20 51 0 101 -5 112 -11 10 -5 21 -10 23 -10 11 0 45 38 51 57 4 11 13 26 21
33 10 9 11 18 4 38 -5 14 -7 38 -4 54 4 17 2 28 -4 28 -6 0 -11 -5 -11 -11z
m-385 -18 c3 -5 1 -12 -5 -16 -5 -3 -10 1 -10 9 0 18 6 21 15 7z"/>
<path d="M9130 2690 c0 -5 7 -10 16 -10 8 0 12 5 9 10 -3 6 -10 10 -16 10 -5
0 -9 -4 -9 -10z"/>
<path d="M8580 2620 c0 -5 5 -10 11 -10 5 0 7 5 4 10 -3 6 -8 10 -11 10 -2 0
-4 -4 -4 -10z"/>
<path d="M9265 2540 c3 -5 10 -10 16 -10 5 0 9 5 9 10 0 6 -7 10 -16 10 -8 0
-12 -4 -9 -10z"/>
<path d="M3230 5016 c0 -2 7 -7 16 -10 8 -3 12 -2 9 4 -6 10 -25 14 -25 6z"/>
<path d="M3348 4908 c-15 -15 -15 -18 -3 -18 8 0 15 4 15 10 0 5 7 7 15 4 8
-4 15 -2 15 4 0 18 -25 19 -42 0z"/>
<path d="M3410 4926 c0 -2 7 -7 16 -10 8 -3 12 -2 9 4 -6 10 -25 14 -25 6z"/>
<path d="M3907 4523 c-4 -3 -7 -13 -7 -22 1 -13 3 -13 11 2 11 19 8 33 -4 20z"/>
<path d="M2711 4506 c-8 -9 -11 -19 -7 -23 9 -9 29 13 24 27 -2 8 -8 7 -17 -4z"/>
<path d="M3900 4469 c0 -8 7 -24 16 -35 14 -18 15 -18 8 6 -8 31 -24 50 -24
29z"/>
<path d="M2720 4415 c0 -8 4 -15 10 -15 5 0 7 7 4 15 -4 8 -8 15 -10 15 -2 0
-4 -7 -4 -15z"/>
<path d="M2710 4368 c0 -9 -6 -19 -12 -22 -7 -4 -3 -4 10 -2 16 3 22 -1 22
-15 0 -10 5 -19 10 -19 15 0 12 11 -10 45 -13 20 -20 24 -20 13z"/>
<path d="M2940 4228 c-91 -28 -130 -47 -137 -65 -5 -12 -7 -12 -14 -1 -6 9 -9
7 -9 -8 0 -33 -11 -35 -32 -8 -11 14 -23 23 -25 20 -3 -3 4 -17 15 -31 15 -19
19 -35 16 -54 -6 -26 -3 -29 39 -40 25 -6 53 -8 62 -5 10 4 22 -1 30 -12 13
-18 14 -18 15 -1 0 23 45 40 70 27 42 -22 123 1 105 31 -4 5 1 9 9 9 9 0 21
-9 28 -20 9 -13 24 -20 45 -20 17 0 38 -7 47 -15 19 -20 30 -19 22 1 -6 14 -4
15 10 4 23 -20 40 9 17 30 -11 11 -17 12 -20 3 -5 -13 -34 -6 -107 27 -40 18
-59 21 -104 16 -50 -6 -122 -38 -130 -58 -2 -4 -17 -8 -33 -8 -18 0 -28 4 -24
10 3 6 15 10 26 10 10 0 28 9 38 19 10 10 28 22 40 26 12 3 21 10 21 15 0 9
64 19 142 21 32 1 55 6 52 10 -2 4 0 10 6 14 16 10 2 24 -19 18 -11 -3 -32 4
-48 16 -15 12 -38 23 -51 26 -12 2 -25 6 -30 9 -4 2 -36 -5 -72 -16z"/>
<path d="M3515 4243 c-23 -6 -66 -43 -60 -52 2 -4 36 -8 76 -10 41 -1 78 -5
84 -9 5 -4 18 -8 28 -9 10 -2 30 -12 45 -22 24 -18 55 -25 88 -22 6 1 9 12 6
26 -4 25 -22 45 -22 26 0 -6 -5 -11 -11 -11 -5 0 -7 4 -4 10 3 6 -1 7 -9 4 -9
-3 -16 -2 -16 4 0 6 -13 13 -30 17 -16 4 -30 13 -30 20 0 26 -86 42 -145 28z"/>
<path d="M2713 4215 c-3 -9 -3 -18 -1 -21 3 -3 8 4 11 16 6 23 -1 27 -10 5z"/>
<path d="M3118 4203 c7 -3 16 -2 19 1 4 3 -2 6 -13 5 -11 0 -14 -3 -6 -6z"/>
<path d="M3255 4170 c-3 -5 -1 -10 4 -10 6 0 11 5 11 10 0 6 -2 10 -4 10 -3 0
-8 -4 -11 -10z"/>
<path d="M3170 4158 c0 -4 4 -8 9 -8 6 0 12 4 15 8 3 5 -1 9 -9 9 -8 0 -15 -4
-15 -9z"/>
<path d="M3578 4143 c7 -3 16 -2 19 1 4 3 -2 6 -13 5 -11 0 -14 -3 -6 -6z"/>
<path d="M3246 4124 c-15 -14 -22 -34 -12 -34 2 0 18 6 36 14 32 13 32 14 12
25 -16 9 -24 8 -36 -5z"/>
<path d="M3589 4126 c-2 -3 -22 -6 -44 -9 -77 -8 -110 -37 -86 -76 7 -11 13
-9 30 8 15 15 21 17 21 7 0 -8 13 -19 29 -24 39 -14 75 5 79 41 4 30 14 34 34
13 10 -9 20 -11 31 -4 20 10 23 32 5 25 -7 -2 -30 2 -52 9 -44 16 -41 15 -47
10z"/>
<path d="M3982 4020 c-6 -24 -9 -46 -7 -48 6 -6 27 68 23 80 -3 7 -10 -8 -16
-32z"/>
<path d="M2730 4032 c0 -14 26 -22 68 -21 l37 1 -35 8 c-19 4 -43 11 -52 15
-10 4 -18 3 -18 -3z"/>
<path d="M2620 3999 c0 -5 5 -7 10 -4 6 3 10 8 10 11 0 2 -4 4 -10 4 -5 0 -10
-5 -10 -11z"/>
<path d="M2725 3990 c3 -6 20 -10 37 -10 38 0 34 5 -10 13 -21 4 -31 3 -27 -3z"/>
<path d="M2810 3990 c0 -5 5 -10 10 -10 6 0 10 5 10 10 0 6 -4 10 -10 10 -5 0
-10 -4 -10 -10z"/>
<path d="M2672 3975 c9 -10 21 -16 28 -13 7 2 -1 10 -16 17 -27 12 -28 11 -12
-4z"/>
<path d="M2705 3940 c-3 -6 5 -10 19 -10 14 0 28 5 31 10 3 6 -5 10 -19 10
-14 0 -28 -4 -31 -10z"/>
<path d="M2785 3940 c-16 -7 -17 -9 -3 -9 9 -1 20 4 23 9 7 11 7 11 -20 0z"/>
<path d="M2725 3900 c-3 -5 -2 -10 4 -10 5 0 13 5 16 10 3 6 2 10 -4 10 -5 0
-13 -4 -16 -10z"/>
<path d="M2775 3890 c-3 -5 1 -10 9 -10 9 0 16 5 16 10 0 6 -4 10 -9 10 -6 0
-13 -4 -16 -10z"/>
<path d="M2604 3868 c1 -13 6 -22 9 -20 4 1 12 2 17 2 6 0 10 5 10 10 0 6 -6
9 -12 8 -7 -2 -12 3 -10 10 1 6 -2 12 -8 12 -5 0 -8 -10 -6 -22z"/>
<path d="M2740 3869 c0 -5 5 -7 10 -4 6 3 10 8 10 11 0 2 -4 4 -10 4 -5 0 -10
-5 -10 -11z"/>
<path d="M2770 3818 c-12 -22 -12 -22 6 -6 10 10 15 20 12 24 -4 3 -12 -5 -18
-18z"/>
<path d="M2670 3805 c0 -8 8 -11 20 -8 11 3 20 7 20 8 0 1 -9 5 -20 8 -12 3
-20 0 -20 -8z"/>
<path d="M2725 3800 c-3 -5 -1 -10 4 -10 6 0 11 5 11 10 0 6 -2 10 -4 10 -3 0
-8 -4 -11 -10z"/>
<path d="M3111 3778 c-80 -87 -100 -114 -95 -129 2 -9 -2 -22 -11 -29 -8 -7
-15 -18 -15 -24 0 -8 3 -8 8 0 4 6 16 14 26 18 19 6 19 6 3 -12 -22 -24 -22
-38 1 -21 14 11 13 10 -2 -9 -11 -12 -26 -22 -35 -22 -9 0 -12 -3 -6 -8 6 -4
10 -14 10 -22 0 -8 7 -14 15 -12 12 2 11 -1 -2 -11 -16 -13 -16 -15 9 -28 14
-7 35 -13 47 -11 12 2 37 -3 55 -11 42 -18 74 -11 68 14 -4 16 2 17 72 13 58
-4 72 -3 58 6 -9 6 -21 9 -26 5 -5 -3 -11 -1 -13 4 -1 4 -27 11 -57 14 -66 7
-74 14 -27 22 20 4 39 11 42 16 3 5 13 9 22 9 24 1 80 51 64 57 -7 3 -19 11
-26 19 -8 8 -19 14 -24 14 -6 0 -12 5 -14 11 -2 6 -28 21 -58 34 -50 21 -55
26 -58 58 -3 30 0 35 24 41 18 5 32 2 45 -10 19 -17 24 -9 13 20 -4 11 -19 16
-45 16 -31 0 -45 -7 -68 -32z m-21 -223 c0 -8 -2 -15 -4 -15 -2 0 -6 7 -10 15
-3 8 -1 15 4 15 6 0 10 -7 10 -15z m75 -75 c3 -5 1 -10 -4 -10 -6 0 -11 5 -11
10 0 6 2 10 4 10 3 0 8 -4 11 -10z"/>
<path d="M3500 3791 c0 -16 64 -116 106 -164 18 -21 37 -55 42 -75 l10 -37 2
30 c3 43 0 58 -17 78 -9 9 -13 17 -10 17 3 0 -6 12 -20 28 -14 15 -36 43 -48
62 -27 42 -65 78 -65 61z"/>
<path d="M3210 3700 c0 -5 5 -10 11 -10 5 0 7 5 4 10 -3 6 -8 10 -11 10 -2 0
-4 -4 -4 -10z"/>
<path d="M2775 3680 c3 -6 -4 -10 -16 -10 -12 0 -20 -3 -16 -6 10 -10 58 5 52
16 -3 6 -11 10 -16 10 -6 0 -7 -4 -4 -10z"/>
<path d="M2802 3670 c-18 -29 -16 -61 4 -53 11 4 12 9 5 16 -14 14 -14 30 -1
22 6 -3 10 3 10 14 0 26 -2 26 -18 1z"/>
<path d="M2962 3615 c-41 -46 -48 -90 -27 -155 9 -28 19 -49 21 -47 2 2 -3 24
-11 48 -15 43 -12 99 5 99 5 0 7 6 4 14 -3 7 7 27 21 45 36 42 25 40 -13 -4z"/>
<path d="M2627 3583 c-4 -3 -7 -13 -7 -22 1 -13 3 -13 11 2 11 19 8 33 -4 20z"/>
<path d="M2666 3568 c-3 -13 -6 -32 -6 -43 0 -19 0 -19 14 1 15 21 18 64 5 64
-4 0 -9 -10 -13 -22z"/>
<path d="M2793 3575 c-3 -9 -3 -18 -1 -21 3 -3 8 4 11 16 6 23 -1 27 -10 5z"/>
<path d="M2762 3520 c0 -19 2 -27 5 -17 2 9 2 25 0 35 -3 9 -5 1 -5 -18z"/>
<path d="M2740 3483 c0 -15 -2 -16 -10 -3 -8 13 -11 13 -19 1 -5 -7 -13 -11
-19 -7 -12 7 -22 -50 -10 -62 5 -5 11 -36 12 -69 5 -103 86 -220 227 -328 62
-49 167 -105 195 -105 11 0 37 -12 59 -25 51 -32 61 -32 30 0 -14 13 -25 30
-25 37 0 35 120 69 153 44 17 -13 19 -39 3 -64 -9 -14 11 -62 25 -62 17 0 19
21 4 43 -13 20 -13 26 -2 36 8 6 17 7 21 3 5 -4 6 4 4 18 -2 14 5 33 15 45 12
13 17 29 13 48 -4 17 -1 27 7 28 6 1 -6 5 -28 10 -36 8 -68 13 -142 21 -11 2
-19 6 -16 11 2 4 -12 7 -31 7 -19 0 -38 5 -42 11 -3 6 -19 16 -34 22 -45 20
-116 85 -181 168 -34 43 -66 79 -70 79 -5 0 -9 8 -9 18 0 9 -7 35 -15 57 l-15
40 6 -55 c4 -30 19 -88 35 -128 16 -41 29 -78 29 -84 0 -23 -39 25 -59 73 -12
27 -26 49 -31 49 -5 0 -7 7 -3 15 3 10 1 15 -7 13 -7 -2 -15 3 -18 11 -3 8 0
11 7 7 7 -5 9 -1 5 8 -3 9 -10 16 -14 16 -5 0 -6 10 -3 23 l5 22 -19 -23 c-23
-28 -34 -20 -26 19 3 16 3 29 -1 29 -3 0 -6 -8 -6 -17z"/>
<path d="M3465 3489 c-12 -18 0 -20 41 -5 l39 15 -37 0 c-20 1 -40 -4 -43 -10z"/>
<path d="M3225 3440 c-3 -5 -1 -10 4 -10 6 0 11 5 11 10 0 6 -2 10 -4 10 -3 0
-8 -4 -11 -10z"/>
<path d="M3298 3423 c7 -3 16 -2 19 1 4 3 -2 6 -13 5 -11 0 -14 -3 -6 -6z"/>
<path d="M3081 3384 c25 -46 39 -59 68 -69 16 -5 26 -3 32 6 13 20 11 29 -5
29 -24 0 -86 41 -86 56 0 8 -7 14 -15 14 -12 0 -11 -7 6 -36z"/>
<path d="M2660 3398 c0 -7 5 -20 10 -28 8 -12 10 -9 10 13 0 15 -4 27 -10 27
-5 0 -10 -6 -10 -12z"/>
<path d="M3526 3043 c-6 -14 -5 -15 5 -6 7 7 10 15 7 18 -3 3 -9 -2 -12 -12z"/>
<path d="M2653 1453 c9 -2 23 -2 30 0 6 3 -1 5 -18 5 -16 0 -22 -2 -12 -5z"/>
<path d="M2760 1381 c0 -5 7 -12 16 -15 22 -9 24 -8 18 9 -7 16 -34 21 -34 6z"/>
<path d="M6090 4866 c0 -11 9 -16 26 -16 31 0 28 23 -4 28 -15 2 -22 -2 -22
-12z"/>
<path d="M6080 4820 c-11 -7 -3 -10 28 -10 26 0 41 4 37 10 -8 13 -45 13 -65
0z"/>
<path d="M6076 4793 c-11 -11 -6 -23 9 -23 8 0 15 4 15 9 0 13 -16 22 -24 14z"/>
<path d="M6136 4791 c-4 -7 -5 -15 -2 -18 9 -9 19 4 14 18 -4 11 -6 11 -12 0z"/>
<path d="M6072 4734 c4 -21 22 -23 26 -1 2 10 -3 17 -13 17 -10 0 -15 -6 -13
-16z"/>
<path d="M6130 4730 c0 -11 5 -20 10 -20 6 0 10 9 10 20 0 11 -4 20 -10 20 -5
0 -10 -9 -10 -20z"/>
<path d="M6545 4870 c3 -5 10 -10 16 -10 5 0 9 5 9 10 0 6 -7 10 -16 10 -8 0
-12 -4 -9 -10z"/>
<path d="M6610 4835 c0 -25 5 -45 10 -45 6 0 10 20 10 45 0 25 -4 45 -10 45
-5 0 -10 -20 -10 -45z"/>
<path d="M6550 4835 c0 -8 5 -15 10 -15 6 0 10 7 10 15 0 8 -4 15 -10 15 -5 0
-10 -7 -10 -15z"/>
<path d="M6550 4795 c0 -8 5 -15 10 -15 6 0 10 7 10 15 0 8 -4 15 -10 15 -5 0
-10 -7 -10 -15z"/>
<path d="M2415 4790 c3 -5 8 -10 11 -10 2 0 4 5 4 10 0 6 -5 10 -11 10 -5 0
-7 -4 -4 -10z"/>
<path d="M8265 4781 c-6 -11 9 -23 19 -14 9 9 7 23 -3 23 -6 0 -12 -4 -16 -9z"/>
<path d="M5890 4460 c0 -161 4 -174 49 -150 29 15 48 56 56 121 12 96 -25 179
-80 179 l-25 0 0 -150z"/>
<path d="M7961 3500 c-1 -8 8 -32 19 -53 11 -20 20 -49 20 -64 0 -22 2 -25 10
-13 8 13 10 12 10 -3 0 -10 4 -16 9 -13 5 4 7 -4 4 -16 -4 -20 -3 -21 7 -5 14
21 4 57 -16 57 -8 0 -14 5 -14 11 0 5 4 8 9 5 4 -3 6 5 4 19 -3 13 -10 22 -17
19 -8 -3 -19 11 -28 33 -9 21 -16 31 -17 23z"/>
<path d="M7940 3426 c0 -8 4 -17 9 -20 5 -4 7 3 4 14 -6 23 -13 26 -13 6z"/>
<path d="M8444 3426 c-8 -22 3 -33 18 -18 9 9 9 15 0 24 -9 9 -13 7 -18 -6z"/>
<path d="M8501 3225 c0 -11 4 -27 9 -35 9 -13 10 -13 9 0 0 8 -4 24 -9 35 l-9
20 0 -20z"/>
<path d="M8238 3157 c-4 -20 -1 -30 9 -34 16 -6 33 13 33 37 -1 11 -4 9 -12
-5 -12 -19 -12 -19 -18 5 l-6 25 -6 -28z"/>
<path d="M8430 3100 c0 -5 4 -10 9 -10 6 0 13 5 16 10 3 6 -1 10 -9 10 -9 0
-16 -4 -16 -10z"/>
<path d="M8322 2485 c0 -16 2 -22 5 -12 2 9 2 23 0 30 -3 6 -5 -1 -5 -18z"/>
<path d="M8325 2406 c0 -24 3 -42 7 -39 10 6 10 83 1 83 -5 0 -8 -20 -8 -44z"/>
<path d="M8317 2303 c-11 -10 -8 -43 3 -43 6 0 10 11 10 25 0 26 -2 29 -13 18z"/>
<path d="M5257 4618 c-26 -21 -37 -64 -37 -151 0 -103 25 -167 64 -167 42 0
60 48 60 160 -1 99 -16 151 -49 164 -21 8 -18 8 -38 -6z"/>
<path d="M6270 4598 c-11 -18 -20 -45 -20 -60 0 -27 2 -28 51 -28 l52 0 -7 41
c-13 84 -42 102 -76 47z"/>
<path d="M8116 3905 c-3 -9 0 -15 8 -15 7 0 13 7 13 15 0 8 -4 15 -8 15 -4 0
-9 -7 -13 -15z"/>
<path d="M8360 3875 c0 -8 2 -15 4 -15 2 0 6 7 10 15 3 8 1 15 -4 15 -6 0 -10
-7 -10 -15z"/>
<path d="M8101 3871 c-11 -7 -9 -13 7 -29 15 -15 23 -18 28 -10 4 7 2 14 -4
16 -6 2 -8 10 -5 18 6 16 -5 18 -26 5z"/>
<path d="M8215 3868 c-4 -9 -4 -21 -1 -27 3 -5 3 -17 0 -26 -5 -13 -8 -14 -15
-3 -5 7 -9 9 -9 3 0 -19 15 -31 56 -43 54 -16 52 -16 50 13 0 14 -7 25 -16 26
-10 0 -11 2 -2 6 22 9 13 20 -12 16 -21 -4 -24 -2 -19 18 4 14 2 20 -5 16 -5
-4 -12 -1 -15 5 -3 9 -7 8 -12 -4z"/>
<path d="M8341 3826 c-9 -11 -7 -15 8 -19 14 -3 17 0 14 14 -6 23 -7 23 -22 5z"/>
<path d="M8095 3810 c-3 -5 -1 -10 4 -10 6 0 11 5 11 10 0 6 -2 10 -4 10 -3 0
-8 -4 -11 -10z"/>
<path d="M8750 3570 c0 -5 5 -10 10 -10 6 0 10 5 10 10 0 6 -4 10 -10 10 -5 0
-10 -4 -10 -10z"/>
<path d="M8780 3570 c0 -5 5 -10 10 -10 6 0 10 5 10 10 0 6 -4 10 -10 10 -5 0
-10 -4 -10 -10z"/>
<path d="M771 3354 c0 -11 3 -14 6 -6 3 7 2 16 -1 19 -3 4 -6 -2 -5 -13z"/>
<path d="M640 3086 c0 -2 7 -6 15 -10 8 -3 15 -1 15 4 0 6 -7 10 -15 10 -8 0
-15 -2 -15 -4z"/>
<path d="M636 3015 c-9 -26 -7 -32 5 -12 6 10 9 21 6 23 -2 3 -7 -2 -11 -11z"/>
<path d="M615 2969 c-4 -6 -5 -12 -2 -15 2 -3 7 2 10 11 7 17 1 20 -8 4z"/>
<path d="M943 2878 c-30 -8 -47 -31 -48 -68 -1 -8 -6 -14 -13 -13 -16 4 -24
-35 -20 -94 l3 -48 128 0 c127 0 127 0 153 -29 22 -23 24 -30 13 -37 -10 -6
-5 -8 16 -8 32 1 89 16 67 18 -7 1 -10 6 -7 11 3 6 -5 10 -19 10 -14 0 -28 5
-32 12 -5 7 -3 8 6 3 8 -5 11 -3 8 6 -2 8 -38 31 -79 52 -61 31 -88 39 -137
40 -70 2 -76 11 -37 53 21 23 34 27 87 29 58 2 107 -13 92 -28 -4 -3 6 -9 20
-13 15 -3 24 -9 21 -12 -9 -9 27 -42 38 -35 6 4 8 0 4 -9 -8 -21 12 -38 43
-38 22 1 23 2 8 11 -10 5 -18 15 -18 20 0 6 -10 20 -22 31 -18 15 -19 18 -5
14 9 -3 17 -2 17 2 -1 17 -20 36 -41 39 -12 2 -36 14 -53 27 -69 52 -135 70
-193 54z"/>
<path d="M590 2866 c0 -14 21 -26 46 -26 22 0 16 16 -11 28 -33 15 -35 15 -35
-2z"/>
<path d="M545 2790 c3 -5 8 -10 11 -10 2 0 4 5 4 10 0 6 -5 10 -11 10 -5 0 -7
-4 -4 -10z"/>
<path d="M699 2760 c-1 -8 -1 -19 0 -23 1 -5 -8 -6 -19 -3 -11 3 -29 9 -40 12
-11 3 -20 1 -20 -4 0 -5 -13 -12 -29 -15 -23 -5 -28 -10 -24 -26 3 -11 8 -20
12 -19 3 1 13 -1 21 -5 8 -3 36 -7 62 -10 l48 -5 12 40 c10 33 9 41 -5 56 -14
13 -17 14 -18 2z"/>
<path d="M561 2654 c0 -11 3 -14 6 -6 3 7 2 16 -1 19 -3 4 -6 -2 -5 -13z"/>
<path d="M650 2621 c0 -6 -6 -11 -14 -11 -23 0 -28 -17 -7 -23 20 -5 47 28 31
38 -6 3 -10 1 -10 -4z"/>
<path d="M915 2600 c11 -12 31 -27 45 -32 41 -16 110 -26 110 -17 0 5 10 9 23
9 29 0 57 19 39 27 -6 2 -10 8 -8 12 6 8 -36 7 -51 -2 -6 -4 -33 -2 -59 4 -27
6 -65 13 -84 16 l-35 6 20 -23z"/>
<path d="M550 2569 c0 -5 5 -7 10 -4 6 3 10 8 10 11 0 2 -4 4 -10 4 -5 0 -10
-5 -10 -11z"/>
<path d="M493 2449 c-2 -23 3 -25 10 -4 4 8 3 16 -1 19 -4 3 -9 -4 -9 -15z"/>
<path d="M476 2398 c-3 -13 -5 -36 -5 -53 1 -21 4 -15 10 20 8 52 6 72 -5 33z"/>
<path d="M616 2371 c-3 -5 -2 -42 3 -62 0 -3 16 -14 35 -24 30 -16 34 -23 29
-46 -6 -32 13 -48 22 -18 6 18 8 19 24 5 15 -14 24 -12 91 22 55 27 76 43 78
59 3 19 0 21 -37 16 -25 -3 -55 0 -79 10 -22 9 -42 14 -45 11 -3 -3 -16 0 -28
7 -30 16 -88 29 -93 20z"/>
<path d="M554 2252 c-22 -41 -17 -85 11 -96 17 -6 38 60 33 101 -5 39 -21 37
-44 -5z"/>
<path d="M970 2258 c0 -6 8 -20 18 -31 12 -15 14 -21 5 -24 -7 -3 -13 -9 -13
-14 0 -4 7 -6 15 -2 9 3 15 1 13 -4 -4 -13 57 -70 82 -78 10 -3 21 -16 23 -28
l4 -22 8 22 c7 23 31 37 46 27 5 -3 9 3 10 13 1 13 3 11 9 -7 l8 -25 7 23 c5
14 13 21 21 18 10 -4 11 0 2 20 -9 18 -14 21 -21 12 -6 -9 -7 -6 -4 9 3 13 0
26 -5 30 -7 3 -8 1 -4 -5 4 -7 3 -12 -2 -12 -6 0 -12 6 -15 14 -3 8 -27 15
-64 18 -44 3 -68 11 -94 31 -40 30 -49 33 -49 15z"/>
<path d="M2078 2230 c-2 -6 -19 -16 -39 -23 -43 -15 -45 -33 -4 -29 28 2 65
33 65 53 0 12 -18 11 -22 -1z"/>
<path d="M487 2203 c-11 -10 -8 -25 3 -18 6 3 10 2 10 -2 0 -5 7 -18 15 -29
13 -15 13 -13 -1 16 -20 43 -19 41 -27 33z"/>
<path d="M1250 2138 c0 -32 4 -58 10 -58 13 0 13 80 0 100 -7 11 -10 -2 -10
-42z"/>
<path d="M683 2123 c-7 -2 -13 -11 -13 -18 0 -8 -7 -11 -18 -8 -32 8 -44 -19
-27 -58 l14 -34 1 36 c0 29 5 38 23 43 13 3 26 0 33 -9 7 -9 14 -11 21 -4 6 6
19 2 37 -12 16 -12 31 -18 34 -13 9 12 45 18 38 6 -3 -6 -1 -12 5 -14 5 -2 7
-11 3 -21 -4 -13 -17 -17 -48 -17 -80 1 -95 -1 -101 -10 -3 -5 34 -7 90 -5 52
2 95 0 95 -5 0 -5 -22 -9 -49 -8 -28 0 -55 -3 -60 -7 -17 -10 -13 -55 4 -55
18 0 20 17 3 22 -9 3 -9 6 1 12 8 5 14 1 18 -12 5 -20 5 -20 24 -1 10 10 30
19 44 19 14 0 25 4 25 8 0 12 87 41 143 48 53 7 68 21 44 39 -10 7 -14 20 -10
33 4 16 1 22 -11 22 -23 0 -31 -4 -29 -12 4 -11 -29 -10 -79 2 -138 32 -230
44 -255 33z m212 -72 c3 -5 1 -12 -5 -16 -6 -4 -8 -11 -5 -16 4 -5 2 -9 -4 -9
-14 0 -24 19 -17 35 6 17 22 20 31 6z"/>
<path d="M1106 2033 c-6 -14 -5 -15 5 -6 7 7 10 15 7 18 -3 3 -9 -2 -12 -12z"/>
<path d="M545 1990 c-3 -5 -1 -10 4 -10 6 0 11 5 11 10 0 6 -2 10 -4 10 -3 0
-8 -4 -11 -10z"/>
<path d="M545 1936 c-5 -25 -4 -41 3 -45 6 -4 16 -18 22 -31 10 -23 10 -23 4
5 -4 17 -10 48 -14 70 l-7 40 -8 -39z"/>
<path d="M721 1938 c0 -9 -7 -18 -13 -21 -10 -4 -10 -7 -1 -17 10 -11 13 -10
19 3 3 9 4 24 1 34 -4 15 -5 15 -6 1z"/>
<path d="M1394 1922 c3 -6 1 -14 -5 -17 -5 -4 -8 -14 -5 -22 3 -8 0 -21 -8
-29 -21 -20 -28 -17 -16 6 9 16 8 18 -5 14 -8 -4 -15 -17 -15 -30 0 -27 3 -28
32 -13 15 8 19 8 14 0 -4 -6 -3 -11 2 -11 6 0 8 -8 5 -18 -2 -10 3 -24 12 -32
19 -15 32 -6 17 13 -6 7 -9 25 -8 40 2 15 0 27 -5 27 -4 0 -5 15 -2 34 3 21 1
36 -7 41 -8 5 -11 4 -6 -3z"/>
<path d="M1898 1909 c-10 -10 -17 -22 -15 -25 1 -3 -7 -11 -18 -17 -11 -7 -21
-23 -23 -37 -2 -23 0 -22 33 15 35 37 55 67 55 79 0 11 -15 4 -32 -15z"/>
<path d="M1355 1900 c-3 -5 -1 -10 4 -10 6 0 11 5 11 10 0 6 -2 10 -4 10 -3 0
-8 -4 -11 -10z"/>
<path d="M1675 1890 c3 -5 8 -10 11 -10 2 0 4 5 4 10 0 6 -5 10 -11 10 -5 0
-7 -4 -4 -10z"/>
<path d="M1631 1874 c0 -11 3 -14 6 -6 3 7 2 16 -1 19 -3 4 -6 -2 -5 -13z"/>
<path d="M786 1843 c-6 -14 -5 -15 5 -6 7 7 10 15 7 18 -3 3 -9 -2 -12 -12z"/>
<path d="M720 1840 c0 -5 4 -10 9 -10 6 0 13 5 16 10 3 6 -1 10 -9 10 -9 0
-16 -4 -16 -10z"/>
<path d="M1435 1830 c-3 -5 -1 -10 4 -10 6 0 11 5 11 10 0 6 -2 10 -4 10 -3 0
-8 -4 -11 -10z"/>
<path d="M592 1780 c-8 -151 -8 -172 0 -150 5 13 7 62 5 109 -1 47 -4 66 -5
41z"/>
<path d="M1357 1813 c-4 -3 -7 -18 -7 -32 0 -19 3 -22 12 -13 6 6 12 21 13 32
2 20 -6 26 -18 13z"/>
<path d="M1315 1800 c3 -5 8 -10 11 -10 2 0 4 5 4 10 0 6 -5 10 -11 10 -5 0
-7 -4 -4 -10z"/>
<path d="M1730 1769 c0 -5 5 -7 10 -4 6 3 10 8 10 11 0 2 -4 4 -10 4 -5 0 -10
-5 -10 -11z"/>
<path d="M1726 1684 c-4 -14 -5 -28 -3 -31 3 -2 8 8 11 23 4 14 5 28 3 31 -3
2 -8 -8 -11 -23z"/>
<path d="M1866 1694 c-5 -14 -4 -15 9 -4 17 14 19 20 6 20 -5 0 -12 -7 -15
-16z"/>
<path d="M1746 1645 c4 -9 2 -20 -3 -24 -7 -4 -6 -10 2 -18 11 -10 14 -9 13 5
0 9 1 23 3 31 2 7 -2 16 -9 18 -8 3 -10 -1 -6 -12z"/>
<path d="M1699 1595 c-1 -3 -2 -9 -3 -15 0 -5 -10 -16 -21 -25 -13 -10 -5 -8
23 5 46 22 54 31 20 22 -14 -3 -19 -2 -14 6 4 7 5 12 2 12 -3 0 -7 -2 -7 -5z"/>
<path d="M1110 1281 c0 -6 15 -27 33 -47 28 -31 36 -35 61 -28 l29 7 -27 24
c-15 12 -34 23 -43 23 -9 0 -25 7 -35 17 -11 10 -18 12 -18 4z"/>
<path d="M8724 2147 c-2 -24 17 -30 45 -12 10 5 12 4 7 -3 -4 -7 -2 -12 4 -12
12 0 25 28 17 36 -3 3 -15 0 -27 -6 -18 -9 -24 -9 -33 4 -10 14 -12 13 -13 -7z"/>
<path d="M8705 2089 c-4 -6 -4 -13 -1 -16 3 -4 6 -1 6 6 0 7 5 9 12 5 7 -4 8
-3 4 4 -9 15 -13 15 -21 1z"/>
<path d="M8728 2053 c10 -4 10 -8 1 -19 -13 -16 -1 -18 21 -4 13 9 13 11 0 20
-8 5 -19 9 -25 9 -5 0 -4 -3 3 -6z"/>
<path d="M8690 1991 c0 -3 4 -12 9 -19 6 -11 9 -9 13 5 3 12 0 20 -8 20 -8 0
-14 -3 -14 -6z"/>
<path d="M8770 1996 c0 -2 7 -9 15 -16 9 -7 15 -8 15 -2 0 5 -7 12 -15 16 -8
3 -15 4 -15 2z"/>
<path d="M8715 1949 c-4 -6 -5 -12 -2 -15 2 -3 7 2 10 11 7 17 1 20 -8 4z"/>
<path d="M8775 1940 c-3 -5 -1 -10 4 -10 6 0 11 5 11 10 0 6 -2 10 -4 10 -3 0
-8 -4 -11 -10z"/>
<path d="M9266 1945 c4 -8 10 -15 15 -15 4 0 6 7 3 15 -4 8 -10 15 -15 15 -4
0 -6 -7 -3 -15z"/>
<path d="M9233 1851 c8 -23 13 -28 15 -16 2 10 -3 25 -12 33 -14 15 -15 13 -3
-17z"/>
<path d="M9535 1260 c-3 -6 1 -7 9 -4 18 7 21 14 7 14 -6 0 -13 -4 -16 -10z"/>
<path d="M9520 1199 c0 -5 5 -7 10 -4 6 3 10 8 10 11 0 2 -4 4 -10 4 -5 0 -10
-5 -10 -11z"/>
<path d="M9565 1159 c-4 -6 -5 -12 -2 -15 2 -3 7 2 10 11 7 17 1 20 -8 4z"/>
<path d="M4230 1441 c-14 -15 -38 -36 -55 -49 l-30 -21 113 -1 114 0 -34 27
c-18 15 -44 37 -58 49 l-25 22 -25 -27z"/>
<path d="M7288 1454 c-3 -3 -4 -14 -1 -25 4 -14 14 -19 39 -19 30 0 34 3 34
25 0 22 -4 25 -33 25 -19 0 -36 -3 -39 -6z"/>
<path d="M6660 1410 c0 -6 36 -10 89 -10 50 0 93 5 96 10 4 6 -28 10 -89 10
-57 0 -96 -4 -96 -10z"/>
<path d="M6170 1330 c0 -6 37 -10 90 -10 53 0 90 4 90 10 0 6 -37 10 -90 10
-53 0 -90 -4 -90 -10z"/>
<path d="M6782 1240 c13 -21 24 -20 83 5 29 13 28 13 -33 14 -60 1 -62 0 -50
-19z"/>
<path d="M6734 1145 c-19 -14 -19 -14 2 -15 12 0 24 7 28 15 7 19 -5 19 -30 0z"/>
<path d="M6130 1210 c0 -5 23 -10 50 -10 28 0 50 5 50 10 0 6 -22 10 -50 10
-27 0 -50 -4 -50 -10z"/>
<path d="M6290 1210 c0 -5 23 -10 50 -10 28 0 50 5 50 10 0 6 -22 10 -50 10
-27 0 -50 -4 -50 -10z"/>
<path d="M6135 1150 c-7 -11 -7 -11 53 -14 29 -1 42 2 42 11 0 16 -85 18 -95
3z"/>
<path d="M6292 1148 c6 -17 98 -19 98 -2 0 10 -14 14 -51 14 -34 0 -49 -4 -47
-12z"/>
<path d="M10403 483 c-10 -3 -13 -47 -13 -169 l0 -164 25 -6 c29 -7 67 14 91
51 19 29 30 144 20 200 -12 64 -74 108 -123 88z"/>
<path d="M9665 484 c-31 -34 -39 -74 -33 -182 5 -92 26 -147 61 -158 63 -20
102 45 102 170 0 158 -64 241 -130 170z"/>
<path d="M10847 499 c-23 -14 -47 -69 -47 -109 0 -30 1 -30 53 -30 73 0 81 7
75 71 -7 69 -37 94 -81 68z"/>
</g>
</svg>
